{
.appVersion = "895";
copyright = "Copyright 2016 Jeremy Tribby. SIL OFL License v1.1.";
date = "2016-07-12 00:27:02 +0000";
designer = "Jeremy Tribby";
designerURL = "http://tribby.com/";
familyName = Barlow;
featurePrefixes = (
{
automatic = 1;
code = "languagesystem DFLT dflt;\012";
name = Languagesystems;
}
);
features = (
{
automatic = 1;
code = "sub hyphen hyphen by hyphen_hyphen.liga;\012";
name = liga;
}
);
fontMaster = (
{
alignmentZones = (
"{800, 16}",
"{700, 10}",
"{500, 6}",
"{0, -10}",
"{-200, -12}"
);
ascender = 800;
capHeight = 700;
customParameters = (
{
name = paramArea;
value = "555";
},
{
name = paramDepth;
value = "12";
},
{
name = paramOver;
value = "0";
}
);
descender = -200;
horizontalStems = (
23,
22
);
id = "262880E7-CFE1-4BDA-902E-E24798F3240A";
userData = {
GSCornerRadius = 8;
GSOffsetHorizontal = 11;
GSOffsetMakeStroke = 1;
GSOffsetVertical = 10;
noodleExtremesAndInflections = 1;
noodleRemoveOverlap = 1;
noodleThickness = "22.0";
};
verticalStems = (
22,
21
);
visible = 1;
weight = Light;
weightValue = 23;
xHeight = 500;
},
{
alignmentZones = (
"{800, 16}",
"{700, 11}",
"{500, 9}",
"{0, -11}",
"{-200, -10}"
);
ascender = 800;
capHeight = 700;
customParameters = (
{
name = paramArea;
value = "220";
},
{
name = paramDepth;
value = "20";
},
{
name = paramOver;
value = "2";
}
);
descender = -200;
horizontalStems = (
198,
208
);
id = "4F25946F-63AC-42D6-8D55-01CF6A99025B";
userData = {
GSCornerRadius = 12;
GSOffsetHorizontal = 104;
GSOffsetMakeStroke = 1;
GSOffsetVertical = 102;
noodleExtremesAndInflections = 1;
noodleRemoveOverlap = 1;
noodleThickness = "50.0";
};
verticalStems = (
202,
168
);
visible = 1;
weight = Bold;
weightValue = 202;
xHeight = 500;
}
);
glyphs = (
{
color = 1;
glyphname = A;
lastChange = "2016-10-18 00:36:00 +0000";
layers = (
{
layerId = "262880E7-CFE1-4BDA-902E-E24798F3240A";
paths = (
{
closed = 1;
nodes = (
"126 0 LINE",
"280 656 LINE",
"434 0 LINE",
"456 0 LINE",
"291 700 LINE",
"269 700 LINE",
"104 0 LINE"
);
},
{
closed = 1;
nodes = (
"403 145 LINE",
"403 166 LINE",
"156 166 LINE",
"156 145 LINE"
);
}
);
width = 560;
},
{
layerId = "4F25946F-63AC-42D6-8D55-01CF6A99025B";
paths = (
{
closed = 1;
nodes = (
"205 0 LINE",
"300 450 LINE",
"395 0 LINE",
"618 0 LINE",
"416 700 LINE",
"184 700 LINE",
"-18 0 LINE"
);
},
{
closed = 1;
nodes = (
"450 75 LINE",
"450 210 LINE",
"150 210 LINE",
"150 75 LINE"
);
}
);
width = 600;
},
{
associatedMasterId = "262880E7-CFE1-4BDA-902E-E24798F3240A";
layerId = "09B97E43-C149-48A2-81D6-63259EF6020F";
name = "DemiBold{119,100}";
paths = (
{
closed = 1;
nodes = (
"153 0 LINE",
"254 527 LINE",
"355 0 LINE",
"486 0 LINE",
"321 700 LINE",
"187 700 LINE",
"22 0 LINE"
);
},
{
closed = 1;
nodes = (
"391 101 LINE",
"391 212 LINE",
"116 212 LINE",
"116 101 LINE"
);
}
);
width = 508;
}
);
unicode = 0041;
},
{
color = 1;
glyphname = B;
lastChange = "2016-10-18 00:36:00 +0000";
layers = (
{
layerId = "262880E7-CFE1-4BDA-902E-E24798F3240A";
paths = (
{
closed = 1;
nodes = (
"285 351 LINE SMOOTH",
"400 351 OFFCURVE",
"471 415 OFFCURVE",
"471 523 CURVE SMOOTH",
"471 631 OFFCURVE",
"400 700 OFFCURVE",
"285 700 CURVE SMOOTH",
"139 700 LINE",
"139 351 LINE"
);
},
{
closed = 1;
nodes = (
"285 0 LINE SMOOTH",
"400 0 OFFCURVE",
"471 71 OFFCURVE",
"471 186 CURVE SMOOTH",
"471 301 OFFCURVE",
"400 372 OFFCURVE",
"285 372 CURVE SMOOTH",
"139 372 LINE",
"139 0 LINE"
);
},
{
closed = 1;
nodes = (
"161 351 LINE",
"285 351 LINE SMOOTH",
"387 351 OFFCURVE",
"449 288 OFFCURVE",
"449 186 CURVE SMOOTH",
"449 84 OFFCURVE",
"387 22 OFFCURVE",
"285 22 CURVE SMOOTH",
"161 22 LINE"
);
},
{
closed = 1;
nodes = (
"161 679 LINE",
"285 679 LINE SMOOTH",
"387 679 OFFCURVE",
"449 618 OFFCURVE",
"449 523 CURVE SMOOTH",
"449 428 OFFCURVE",
"387 372 OFFCURVE",
"285 372 CURVE SMOOTH",
"161 372 LINE"
);
}
);
width = 590;
},
{
layerId = "4F25946F-63AC-42D6-8D55-01CF6A99025B";
paths = (
{
closed = 1;
nodes = (
"308 308 LINE SMOOTH",
"454 308 OFFCURVE",
"552 386 OFFCURVE",
"552 502 CURVE SMOOTH",
"552 621 OFFCURVE",
"452 700 OFFCURVE",
"303 700 CURVE SMOOTH",
"55 700 LINE",
"55 308 LINE"
);
},
{
closed = 1;
nodes = (
"332 0 LINE SMOOTH",
"477 0 OFFCURVE",
"573 82 OFFCURVE",
"573 205 CURVE SMOOTH",
"573 338 OFFCURVE",
"467 426 OFFCURVE",
"307 426 CURVE",
"55 426 LINE",
"55 0 LINE"
);
},
{
closed = 1;
nodes = (
"248 286 LINE",
"313 286 LINE SMOOTH",
"344 286 OFFCURVE",
"364 266 OFFCURVE",
"364 235 CURVE SMOOTH",
"364 203 OFFCURVE",
"343 182 OFFCURVE",
"312 182 CURVE SMOOTH",
"248 182 LINE"
);
},
{
closed = 1;
nodes = (
"248 536 LINE",
"307 536 LINE",
"336 536 OFFCURVE",
"356 517 OFFCURVE",
"356 489 CURVE SMOOTH",
"356 462 OFFCURVE",
"336 444 OFFCURVE",
"307 444 CURVE",
"248 444 LINE"
);
}
);
width = 588;
}
);
unicode = 0042;
},
{
color = 1;
glyphname = C;
lastChange = "2016-10-18 00:36:00 +0000";
layers = (
{
layerId = "262880E7-CFE1-4BDA-902E-E24798F3240A";
paths = (
{
closed = 1;
nodes = (
"391 -9 OFFCURVE",
"453 50 OFFCURVE",
"453 150 CURVE SMOOTH",
"453 152 LINE",
"431 152 LINE",
"431 150 LINE SMOOTH",
"431 64 OFFCURVE",
"379 11 OFFCURVE",
"292 11 CURVE SMOOTH",
"205 11 OFFCURVE",
"153 64 OFFCURVE",
"153 150 CURVE SMOOTH",
"153 550 LINE SMOOTH",
"153 637 OFFCURVE",
"207 690 OFFCURVE",
"292 690 CURVE SMOOTH",
"377 690 OFFCURVE",
"431 637 OFFCURVE",
"431 550 CURVE SMOOTH",
"431 548 LINE",
"453 548 LINE",
"453 550 LINE SMOOTH",
"453 650 OFFCURVE",
"391 709 OFFCURVE",
"292 709 CURVE SMOOTH",
"193 709 OFFCURVE",
"131 650 OFFCURVE",
"131 550 CURVE SMOOTH",
"131 150 LINE SMOOTH",
"131 50 OFFCURVE",
"193 -9 OFFCURVE",
"292 -9 CURVE SMOOTH"
);
}
);
width = 563;
},
{
layerId = "4F25946F-63AC-42D6-8D55-01CF6A99025B";
paths = (
{
closed = 1;
nodes = (
"444 -10 OFFCURVE",
"546 67 OFFCURVE",
"546 183 CURVE SMOOTH",
"546 278 LINE",
"334 278 LINE",
"334 223 LINE SMOOTH",
"334 196 OFFCURVE",
"316 178 OFFCURVE",
"290 178 CURVE SMOOTH",
"264 178 OFFCURVE",
"246 196 OFFCURVE",
"246 223 CURVE SMOOTH",
"246 477 LINE SMOOTH",
"246 504 OFFCURVE",
"264 522 OFFCURVE",
"290 522 CURVE SMOOTH",
"316 522 OFFCURVE",
"334 504 OFFCURVE",
"334 477 CURVE SMOOTH",
"334 422 LINE",
"546 422 LINE",
"546 517 LINE SMOOTH",
"546 633 OFFCURVE",
"444 710 OFFCURVE",
"290 710 CURVE SMOOTH",
"136 710 OFFCURVE",
"34 633 OFFCURVE",
"34 517 CURVE SMOOTH",
"34 183 LINE SMOOTH",
"34 67 OFFCURVE",
"136 -10 OFFCURVE",
"290 -10 CURVE SMOOTH"
);
}
);
width = 568;
}
);
unicode = 0043;
},
{
color = 1;
glyphname = D;
lastChange = "2016-10-18 00:36:01 +0000";
layers = (
{
layerId = "262880E7-CFE1-4BDA-902E-E24798F3240A";
paths = (
{
closed = 1;
nodes = (
"300 0 LINE SMOOTH",
"400 0 OFFCURVE",
"461 61 OFFCURVE",
"461 161 CURVE SMOOTH",
"461 539 LINE SMOOTH",
"461 639 OFFCURVE",
"400 700 OFFCURVE",
"300 700 CURVE SMOOTH",
"139 700 LINE",
"139 0 LINE"
);
},
{
closed = 1;
nodes = (
"161 679 LINE",
"300 679 LINE SMOOTH",
"386 679 OFFCURVE",
"439 626 OFFCURVE",
"439 539 CURVE SMOOTH",
"439 161 LINE SMOOTH",
"439 75 OFFCURVE",
"386 22 OFFCURVE",
"300 22 CURVE SMOOTH",
"161 22 LINE"
);
}
);
width = 591;
},
{
layerId = "4F25946F-63AC-42D6-8D55-01CF6A99025B";
paths = (
{
closed = 1;
nodes = (
"342 0 LINE SMOOTH",
"473 0 OFFCURVE",
"554 73 OFFCURVE",
"554 193 CURVE SMOOTH",
"554 507 LINE SMOOTH",
"554 627 OFFCURVE",
"473 700 OFFCURVE",
"342 700 CURVE SMOOTH",
"55 700 LINE",
"55 0 LINE"
);
},
{
closed = 1;
nodes = (
"263 526 LINE",
"298 526 LINE SMOOTH",
"325 526 OFFCURVE",
"342 509 OFFCURVE",
"342 481 CURVE SMOOTH",
"342 219 LINE SMOOTH",
"342 191 OFFCURVE",
"325 174 OFFCURVE",
"298 174 CURVE SMOOTH",
"263 174 LINE"
);
}
);
width = 589;
},
{
associatedMasterId = "262880E7-CFE1-4BDA-902E-E24798F3240A";
layerId = "5FA87B53-3B99-492D-B797-6707203108CA";
name = "DemiBold{119,100}";
paths = (
{
closed = 1;
nodes = (
"324 0 LINE SMOOTH",
"441 0 OFFCURVE",
"513 67 OFFCURVE",
"513 178 CURVE SMOOTH",
"513 522 LINE SMOOTH",
"513 633 OFFCURVE",
"441 700 OFFCURVE",
"324 700 CURVE SMOOTH",
"106 700 LINE",
"106 0 LINE"
);
},
{
closed = 1;
nodes = (
"228 597 LINE",
"301 597 LINE SMOOTH",
"355 597 OFFCURVE",
"389 563 OFFCURVE",
"389 508 CURVE SMOOTH",
"389 192 LINE SMOOTH",
"389 137 OFFCURVE",
"355 104 OFFCURVE",
"301 104 CURVE SMOOTH",
"228 104 LINE"
);
}
);
width = 604;
}
);
unicode = 0044;
},
{
color = 1;
glyphname = E;
lastChange = "2016-10-18 00:36:01 +0000";
layers = (
{
layerId = "262880E7-CFE1-4BDA-902E-E24798F3240A";
paths = (
{
closed = 1;
nodes = (
"460 0 LINE",
"460 22 LINE",
"161 22 LINE",
"161 679 LINE",
"460 679 LINE",
"460 700 LINE",
"139 700 LINE",
"139 0 LINE"
);
},
{
closed = 1;
nodes = (
"355 340 LINE",
"355 361 LINE",
"150 361 LINE",
"150 340 LINE"
);
}
);
width = 563;
},
{
layerId = "4F25946F-63AC-42D6-8D55-01CF6A99025B";
paths = (
{
closed = 1;
nodes = (
"517 0 LINE",
"517 188 LINE",
"263 188 LINE",
"263 512 LINE",
"517 512 LINE",
"517 700 LINE",
"55 700 LINE",
"55 0 LINE"
);
},
{
closed = 1;
nodes = (
"407 266 LINE",
"407 434 LINE",
"177 434 LINE",
"177 266 LINE"
);
}
);
width = 536;
},
{
associatedMasterId = "262880E7-CFE1-4BDA-902E-E24798F3240A";
layerId = "DE3E8A9A-5DAD-493A-9E98-F56387BAB1C1";
name = "DemiBold{119,100}";
paths = (
{
closed = 1;
nodes = (
"494 0 LINE",
"494 111 LINE",
"229 111 LINE",
"229 589 LINE",
"494 589 LINE",
"494 700 LINE",
"105 700 LINE",
"105 0 LINE"
);
},
{
closed = 1;
nodes = (
"386 300 LINE",
"386 400 LINE",
"177 400 LINE",
"177 300 LINE"
);
}
);
width = 559;
}
);
unicode = 0045;
},
{
color = 1;
glyphname = F;
lastChange = "2016-10-18 00:36:01 +0000";
layers = (
{
layerId = "262880E7-CFE1-4BDA-902E-E24798F3240A";
paths = (
{
closed = 1;
nodes = (
"161 0 LINE",
"161 679 LINE",
"460 679 LINE",
"460 700 LINE",
"139 700 LINE",
"139 0 LINE"
);
},
{
closed = 1;
nodes = (
"355 340 LINE",
"355 361 LINE",
"150 361 LINE",
"150 340 LINE"
);
}
);
width = 561;
},
{
layerId = "4F25946F-63AC-42D6-8D55-01CF6A99025B";
paths = (
{
closed = 1;
nodes = (
"263 0 LINE",
"263 512 LINE",
"531 512 LINE",
"531 700 LINE",
"55 700 LINE",
"55 0 LINE"
);
},
{
closed = 1;
nodes = (
"419 266 LINE",
"419 434 LINE",
"176 434 LINE",
"176 266 LINE"
);
}
);
width = 519;
},
{
associatedMasterId = "262880E7-CFE1-4BDA-902E-E24798F3240A";
layerId = "E70C252C-4698-4A26-900C-4F3FD049D2BA";
name = "DemiBold{119,100}";
paths = (
{
closed = 1;
nodes = (
"232 0 LINE",
"232 589 LINE",
"493 589 LINE",
"493 700 LINE",
"106 700 LINE",
"106 0 LINE"
);
},
{
closed = 1;
nodes = (
"385 300 LINE",
"385 400 LINE",
"180 400 LINE",
"180 300 LINE"
);
}
);
width = 544;
}
);
unicode = 0046;
},
{
color = 1;
glyphname = G;
lastChange = "2016-10-18 00:36:01 +0000";
layers = (
{
layerId = "262880E7-CFE1-4BDA-902E-E24798F3240A";
paths = (
{
closed = 1;
nodes = (
"391 -9 OFFCURVE",
"453 51 OFFCURVE",
"453 150 CURVE",
"453 361 LINE",
"292 361 LINE",
"292 340 LINE",
"431 340 LINE",
"431 150 LINE",
"431 63 OFFCURVE",
"379 11 OFFCURVE",
"292 11 CURVE SMOOTH",
"205 11 OFFCURVE",
"153 63 OFFCURVE",
"153 150 CURVE",
"153 550 LINE",
"153 637 OFFCURVE",
"205 690 OFFCURVE",
"292 690 CURVE SMOOTH",
"379 690 OFFCURVE",
"431 637 OFFCURVE",
"431 550 CURVE",
"453 550 LINE",
"453 649 OFFCURVE",
"391 709 OFFCURVE",
"292 709 CURVE SMOOTH",
"193 709 OFFCURVE",
"131 649 OFFCURVE",
"131 550 CURVE",
"131 150 LINE",
"131 51 OFFCURVE",
"193 -9 OFFCURVE",
"292 -9 CURVE SMOOTH"
);
}
);
width = 575;
},
{
layerId = "4F25946F-63AC-42D6-8D55-01CF6A99025B";
paths = (
{
closed = 1;
nodes = (
"438 -10 OFFCURVE",
"540 88 OFFCURVE",
"540 234 CURVE SMOOTH",
"540 400 LINE",
"284 400 LINE",
"284 270 LINE",
"328 270 LINE",
"328 234 LINE SMOOTH",
"328 200 OFFCURVE",
"310 178 OFFCURVE",
"284 178 CURVE SMOOTH",
"258 178 OFFCURVE",
"240 200 OFFCURVE",
"240 234 CURVE SMOOTH",
"240 466 LINE SMOOTH",
"240 500 OFFCURVE",
"258 522 OFFCURVE",
"284 522 CURVE SMOOTH",
"310 522 OFFCURVE",
"328 500 OFFCURVE",
"328 466 CURVE",
"540 466 LINE",
"540 612 OFFCURVE",
"438 710 OFFCURVE",
"284 710 CURVE SMOOTH",
"130 710 OFFCURVE",
"28 612 OFFCURVE",
"28 466 CURVE SMOOTH",
"28 234 LINE SMOOTH",
"28 88 OFFCURVE",
"130 -10 OFFCURVE",
"284 -10 CURVE SMOOTH"
);
}
);
width = 565;
},
{
associatedMasterId = "262880E7-CFE1-4BDA-902E-E24798F3240A";
layerId = "4BB53C67-4989-441E-8A0D-7E4F5FC64094";
name = "Medium {91, 100}";
paths = (
{
closed = 1;
nodes = (
"426 -9 OFFCURVE",
"504 65 OFFCURVE",
"504 182 CURVE",
"504 376 LINE",
"307 376 LINE",
"307 290 LINE",
"410 290 LINE",
"410 182 LINE",
"410 115 OFFCURVE",
"370 74 OFFCURVE",
"307 74 CURVE SMOOTH",
"243 74 OFFCURVE",
"204 115 OFFCURVE",
"204 182 CURVE",
"204 518 LINE",
"204 585 OFFCURVE",
"243 626 OFFCURVE",
"307 626 CURVE SMOOTH",
"370 626 OFFCURVE",
"410 585 OFFCURVE",
"410 518 CURVE",
"504 518 LINE",
"504 635 OFFCURVE",
"426 709 OFFCURVE",
"307 709 CURVE SMOOTH",
"187 709 OFFCURVE",
"110 635 OFFCURVE",
"110 518 CURVE",
"110 182 LINE",
"110 65 OFFCURVE",
"187 -9 OFFCURVE",
"307 -9 CURVE SMOOTH"
);
}
);
width = 602;
}
);
unicode = 0047;
},
{
color = 1;
glyphname = H;
lastChange = "2016-10-18 00:36:01 +0000";
layers = (
{
layerId = "262880E7-CFE1-4BDA-902E-E24798F3240A";
paths = (
{
closed = 1;
nodes = (
"461 0 LINE",
"461 700 LINE",
"439 700 LINE",
"439 0 LINE"
);
},
{
closed = 1;
nodes = (
"161 0 LINE",
"161 700 LINE",
"139 700 LINE",
"139 0 LINE"
);
},
{
closed = 1;
nodes = (
"444 340 LINE",
"444 361 LINE",
"156 361 LINE",
"156 340 LINE"
);
}
);
width = 600;
},
{
layerId = "4F25946F-63AC-42D6-8D55-01CF6A99025B";
paths = (
{
closed = 1;
nodes = (
"563 0 LINE",
"563 700 LINE",
"353 700 LINE",
"353 0 LINE"
);
},
{
closed = 1;
nodes = (
"265 0 LINE",
"265 700 LINE",
"55 700 LINE",
"55 0 LINE"
);
},
{
closed = 1;
nodes = (
"369 246 LINE",
"369 434 LINE",
"249 434 LINE",
"249 246 LINE"
);
}
);
width = 618;
}
);
unicode = 0048;
},
{
color = 1;
glyphname = I;
lastChange = "2016-10-18 00:36:01 +0000";
layers = (
{
layerId = "262880E7-CFE1-4BDA-902E-E24798F3240A";
paths = (
{
closed = 1;
nodes = (
"161 0 LINE",
"161 700 LINE",
"139 700 LINE",
"139 0 LINE"
);
}
);
width = 300;
},
{
layerId = "4F25946F-63AC-42D6-8D55-01CF6A99025B";
paths = (
{
closed = 1;
nodes = (
"257 0 LINE",
"257 700 LINE",
"55 700 LINE",
"55 0 LINE"
);
}
);
width = 312;
}
);
unicode = 0049;
},
{
color = 1;
glyphname = J;
lastChange = "2016-10-18 00:36:01 +0000";
layers = (
{
layerId = "262880E7-CFE1-4BDA-902E-E24798F3240A";
paths = (
{
closed = 1;
nodes = (
"363 -11 OFFCURVE",
"423 50 OFFCURVE",
"423 150 CURVE SMOOTH",
"423 700 LINE",
"401 700 LINE",
"401 150 LINE",
"401 64 OFFCURVE",
"349 11 OFFCURVE",
"265 11 CURVE SMOOTH",
"181 11 OFFCURVE",
"129 64 OFFCURVE",
"129 150 CURVE SMOOTH",
"129 195 LINE",
"107 195 LINE",
"107 150 LINE SMOOTH",
"107 50 OFFCURVE",
"167 -11 OFFCURVE",
"265 -11 CURVE SMOOTH"
);
}
);
width = 558;
},
{
layerId = "4F25946F-63AC-42D6-8D55-01CF6A99025B";
paths = (
{
closed = 1;
nodes = (
"391 -10 OFFCURVE",
"491 88 OFFCURVE",
"491 235 CURVE",
"486 702 LINE",
"274 700 LINE",
"279 233 LINE",
"279 200 OFFCURVE",
"263 178 OFFCURVE",
"240 178 CURVE SMOOTH",
"217 178 OFFCURVE",
"201 200 OFFCURVE",
"201 234 CURVE SMOOTH",
"201 290 LINE",
"-11 290 LINE",
"-11 234 LINE SMOOTH",
"-11 88 OFFCURVE",
"89 -10 OFFCURVE",
"240 -10 CURVE SMOOTH"
);
}
);
width = 531;
}
);
unicode = 004A;
},
{
color = 1;
glyphname = K;
lastChange = "2016-10-18 00:36:01 +0000";
layers = (
{
layerId = "262880E7-CFE1-4BDA-902E-E24798F3240A";
paths = (
{
closed = 1;
nodes = (
"471 0 LINE",
"175 350 LINE",
"471 700 LINE",
"445 700 LINE",
"147 350 LINE",
"445 0 LINE"
);
},
{
closed = 1;
nodes = (
"161 0 LINE",
"161 700 LINE",
"139 700 LINE",
"139 0 LINE"
);
}
);
width = 573;
},
{
layerId = "4F25946F-63AC-42D6-8D55-01CF6A99025B";
paths = (
{
closed = 1;
nodes = (
"586 0 LINE",
"411 350 LINE",
"583 700 LINE",
"333 700 LINE",
"193 350 LINE",
"333 0 LINE"
);
},
{
closed = 1;
nodes = (
"263 0 LINE",
"263 700 LINE",
"55 700 LINE",
"55 0 LINE"
);
}
);
width = 571;
},
{
associatedMasterId = "262880E7-CFE1-4BDA-902E-E24798F3240A";
layerId = "52A147BE-A087-4D72-9A5D-908B44B10E17";
name = "Medium {91, 100}";
paths = (
{
closed = 1;
nodes = (
"524 0 LINE",
"260 350 LINE",
"522 700 LINE",
"407 700 LINE",
"142 350 LINE",
"407 0 LINE"
);
},
{
closed = 1;
nodes = (
"218 0 LINE",
"218 700 LINE",
"124 700 LINE",
"124 0 LINE"
);
}
);
width = 589;
},
{
associatedMasterId = "4F25946F-63AC-42D6-8D55-01CF6A99025B";
layerId = "57219196-2667-4E9B-A894-DD00D1913D76";
name = "Bold Oct 15 16, 02:53";
paths = (
{
closed = 1;
nodes = (
"590 0 LINE",
"413 350 LINE",
"585 700 LINE",
"335 700 LINE",
"193 350 LINE",
"335 0 LINE"
);
},
{
closed = 1;
nodes = (
"265 0 LINE",
"265 700 LINE",
"57 700 LINE",
"57 0 LINE"
);
}
);
width = 593;
}
);
unicode = 004B;
},
{
color = 1;
glyphname = L;
lastChange = "2016-10-18 00:36:00 +0000";
layers = (
{
layerId = "262880E7-CFE1-4BDA-902E-E24798F3240A";
paths = (
{
closed = 1;
nodes = (
"450 0 LINE",
"450 22 LINE",
"161 22 LINE",
"161 700 LINE",
"139 700 LINE",
"139 0 LINE"
);
}
);
width = 551;
},
{
layerId = "4F25946F-63AC-42D6-8D55-01CF6A99025B";
paths = (
{
closed = 1;
nodes = (
"512 0 LINE",
"512 192 LINE",
"263 192 LINE",
"263 700 LINE",
"55 700 LINE",
"55 0 LINE"
);
}
);
width = 501;
}
);
unicode = 004C;
},
{
color = 1;
glyphname = M;
lastChange = "2016-10-18 00:36:00 +0000";
layers = (
{
layerId = "262880E7-CFE1-4BDA-902E-E24798F3240A";
paths = (
{
closed = 1;
nodes = (
"158 0 LINE",
"161 655 LINE",
"318 324 LINE",
"476 655 LINE",
"476 0 LINE",
"497 0 LINE",
"497 700 LINE",
"475 700 LINE",
"318 372 LINE",
"161 700 LINE",
"139 700 LINE",
"139 0 LINE"
);
}
);
width = 636;
},
{
layerId = "4F25946F-63AC-42D6-8D55-01CF6A99025B";
paths = (
{
closed = 1;
nodes = (
"267 0 LINE",
"267 364 LINE",
"349 232 LINE",
"431 364 LINE",
"431 0 LINE",
"643 0 LINE",
"643 698 LINE",
"437 698 LINE",
"349 522 LINE",
"258 702 LINE",
"55 702 LINE",
"55 0 LINE"
);
}
);
width = 698;
},
{
associatedMasterId = "4F25946F-63AC-42D6-8D55-01CF6A99025B";
layerId = "BF6C6FBC-ABCF-4728-B32F-BE7F013B92F9";
name = "Medium {91, 100}";
paths = (
{
closed = 1;
nodes = (
"216 0 LINE",
"218 503 LINE",
"346 261 LINE",
"476 503 LINE",
"476 0 LINE",
"569 0 LINE",
"569 699 LINE",
"477 699 LINE",
"346 423 LINE",
"214 701 LINE",
"124 701 LINE",
"124 0 LINE"
);
}
);
width = 693;
}
);
unicode = 004D;
},
{
color = 1;
glyphname = N;
lastChange = "2016-10-18 00:36:01 +0000";
layers = (
{
layerId = "262880E7-CFE1-4BDA-902E-E24798F3240A";
paths = (
{
closed = 1;
nodes = (
"161 0 LINE",
"161 647 LINE",
"438 0 LINE",
"461 0 LINE",
"461 700 LINE",
"439 700 LINE",
"439 53 LINE",
"162 700 LINE",
"139 700 LINE",
"139 0 LINE"
);
}
);
width = 600;
},
{
layerId = "4F25946F-63AC-42D6-8D55-01CF6A99025B";
paths = (
{
closed = 1;
nodes = (
"255 0 LINE",
"258 269 LINE",
"406 0 LINE",
"570 0 LINE",
"570 700 LINE",
"373 700 LINE",
"373 404 LINE",
"219 700 LINE",
"55 700 LINE",
"55 0 LINE"
);
}
);
width = 625;
},
{
associatedMasterId = "4F25946F-63AC-42D6-8D55-01CF6A99025B";
layerId = "0B1885C1-B30B-43AF-BA88-F41889FEAFD7";
name = "DemiBold{119,100}";
paths = (
{
closed = 1;
nodes = (
"218 0 LINE",
"220 393 LINE",
"427 0 LINE",
"526.006 0 LINE",
"526.006 700 LINE",
"410 700 LINE",
"410 284 LINE",
"199 700 LINE",
"100 700 LINE",
"100 0 LINE"
);
}
);
width = 627;
}
);
unicode = 004E;
},
{
color = 1;
glyphname = O;
lastChange = "2016-10-18 00:36:02 +0000";
layers = (
{
layerId = "262880E7-CFE1-4BDA-902E-E24798F3240A";
paths = (
{
closed = 1;
nodes = (
"381 -9 OFFCURVE",
"453 60 OFFCURVE",
"453 150 CURVE SMOOTH",
"453 550 LINE SMOOTH",
"453 640 OFFCURVE",
"381 709 OFFCURVE",
"292 709 CURVE SMOOTH",
"203 709 OFFCURVE",
"131 640 OFFCURVE",
"131 550 CURVE SMOOTH",
"131 150 LINE SMOOTH",
"131 60 OFFCURVE",
"203 -9 OFFCURVE",
"292 -9 CURVE SMOOTH"
);
},
{
closed = 1;
nodes = (
"213 11 OFFCURVE",
"153 72 OFFCURVE",
"153 150 CURVE SMOOTH",
"153 550 LINE SMOOTH",
"153 629 OFFCURVE",
"215 690 OFFCURVE",
"292 690 CURVE SMOOTH",
"369 690 OFFCURVE",
"431 629 OFFCURVE",
"431 550 CURVE SMOOTH",
"431 150 LINE SMOOTH",
"431 72 OFFCURVE",
"371 11 OFFCURVE",
"292 11 CURVE SMOOTH"
);
}
);
width = 584;
},
{
layerId = "4F25946F-63AC-42D6-8D55-01CF6A99025B";
paths = (
{
closed = 1;
nodes = (
"444 -10 OFFCURVE",
"548 87 OFFCURVE",
"548 233 CURVE SMOOTH",
"548 467 LINE SMOOTH",
"548 613 OFFCURVE",
"444 710 OFFCURVE",
"288 710 CURVE SMOOTH",
"132 710 OFFCURVE",
"28 613 OFFCURVE",
"28 467 CURVE SMOOTH",
"28 233 LINE SMOOTH",
"28 87 OFFCURVE",
"132 -10 OFFCURVE",
"288 -10 CURVE SMOOTH"
);
},
{
closed = 1;
nodes = (
"259 174 OFFCURVE",
"240 194 OFFCURVE",
"240 223 CURVE SMOOTH",
"240 477 LINE SMOOTH",
"240 506 OFFCURVE",
"259 526 OFFCURVE",
"288 526 CURVE SMOOTH",
"317 526 OFFCURVE",
"336 506 OFFCURVE",
"336 477 CURVE SMOOTH",
"336 223 LINE SMOOTH",
"336 194 OFFCURVE",
"317 174 OFFCURVE",
"288 174 CURVE SMOOTH"
);
}
);
width = 575;
}
);
unicode = 004F;
},
{
color = 1;
glyphname = P;
lastChange = "2016-10-18 00:36:02 +0000";
layers = (
{
layerId = "262880E7-CFE1-4BDA-902E-E24798F3240A";
paths = (
{
closed = 1;
nodes = (
"161 0 LINE",
"161 679 LINE",
"285 679 LINE SMOOTH",
"385 679 OFFCURVE",
"446 616 OFFCURVE",
"446 513 CURVE SMOOTH",
"446 409 OFFCURVE",
"385 346 OFFCURVE",
"285 346 CURVE SMOOTH",
"156 346 LINE",
"156 324 LINE",
"285 325 LINE SMOOTH",
"398 326 OFFCURVE",
"468 397 OFFCURVE",
"468 512 CURVE SMOOTH",
"468 629 OFFCURVE",
"398 700 OFFCURVE",
"285 700 CURVE SMOOTH",
"139 700 LINE",
"139 0 LINE"
);
}
);
width = 577;
},
{
layerId = "4F25946F-63AC-42D6-8D55-01CF6A99025B";
paths = (
{
closed = 1;
nodes = (
"267 0 LINE",
"267 512 LINE",
"296 512 LINE SMOOTH",
"325 512 OFFCURVE",
"345 492 OFFCURVE",
"345 462 CURVE SMOOTH",
"345 432 OFFCURVE",
"325 412 OFFCURVE",
"296 412 CURVE SMOOTH",
"251 412 LINE",
"251 233 LINE",
"335 233 LINE SMOOTH",
"468 233 OFFCURVE",
"557 326 OFFCURVE",
"557 465 CURVE SMOOTH",
"557 606 OFFCURVE",
"465 700 OFFCURVE",
"326 700 CURVE SMOOTH",
"55 700 LINE",
"55 0 LINE"
);
}
);
width = 554;
}
);
unicode = 0050;
},
{
color = 1;
glyphname = Q;
lastChange = "2016-10-18 00:36:01 +0000";
layers = (
{
layerId = "262880E7-CFE1-4BDA-902E-E24798F3240A";
paths = (
{
closed = 1;
nodes = (
"380 -11 OFFCURVE",
"452 60 OFFCURVE",
"452 150 CURVE SMOOTH",
"452 550 LINE SMOOTH",
"452 640 OFFCURVE",
"380 711 OFFCURVE",
"291 711 CURVE SMOOTH",
"202 711 OFFCURVE",
"130 640 OFFCURVE",
"130 550 CURVE SMOOTH",
"130 150 LINE SMOOTH",
"130 60 OFFCURVE",
"202 -11 OFFCURVE",
"291 -11 CURVE SMOOTH"
);
},
{
closed = 1;
nodes = (
"469 -41 LINE",
"260 11 LINE",
"255 -7 LINE",
"462 -65 LINE"
);
},
{
closed = 1;
nodes = (
"212 11 OFFCURVE",
"152 72 OFFCURVE",
"152 150 CURVE SMOOTH",
"152 550 LINE SMOOTH",
"152 629 OFFCURVE",
"214 690 OFFCURVE",
"291 690 CURVE SMOOTH",
"368 690 OFFCURVE",
"430 629 OFFCURVE",
"430 550 CURVE SMOOTH",
"430 150 LINE SMOOTH",
"430 72 OFFCURVE",
"370 11 OFFCURVE",
"291 11 CURVE SMOOTH"
);
}
);
width = 583;
},
{
layerId = "4F25946F-63AC-42D6-8D55-01CF6A99025B";
paths = (
{
closed = 1;
nodes = (
"438 -10 OFFCURVE",
"540 87 OFFCURVE",
"540 233 CURVE SMOOTH",
"540 467 LINE SMOOTH",
"540 613 OFFCURVE",
"438 710 OFFCURVE",
"284 710 CURVE SMOOTH",
"130 710 OFFCURVE",
"28 613 OFFCURVE",
"28 467 CURVE SMOOTH",
"28 233 LINE SMOOTH",
"28 87 OFFCURVE",
"130 -10 OFFCURVE",
"284 -10 CURVE SMOOTH"
);
},
{
closed = 1;
nodes = (
"556 113 LINE",
"232 118 LINE",
"232 -6 LINE",
"548 -43 LINE"
);
},
{
closed = 1;
nodes = (
"258 178 OFFCURVE",
"240 196 OFFCURVE",
"240 223 CURVE SMOOTH",
"240 477 LINE SMOOTH",
"240 504 OFFCURVE",
"258 522 OFFCURVE",
"284 522 CURVE SMOOTH",
"310 522 OFFCURVE",
"328 504 OFFCURVE",
"328 477 CURVE SMOOTH",
"328 223 LINE SMOOTH",
"328 196 OFFCURVE",
"310 178 OFFCURVE",
"284 178 CURVE SMOOTH"
);
}
);
width = 584;
}
);
unicode = 0051;
},
{
color = 1;
glyphname = R;
lastChange = "2016-10-18 00:36:01 +0000";
layers = (
{
layerId = "262880E7-CFE1-4BDA-902E-E24798F3240A";
paths = (
{
closed = 1;
nodes = (
"161 0 LINE",
"161 679 LINE",
"288 679 LINE SMOOTH",
"388 679 OFFCURVE",
"449 616 OFFCURVE",
"449 512 CURVE SMOOTH",
"449 408 OFFCURVE",
"388 344 OFFCURVE",
"288 344 CURVE SMOOTH",
"156 344 LINE",
"156 322 LINE",
"288 323 LINE SMOOTH",
"401 324 OFFCURVE",
"471 395 OFFCURVE",
"471 511 CURVE SMOOTH",
"471 628 OFFCURVE",
"401 700 OFFCURVE",
"288 700 CURVE SMOOTH",
"139 700 LINE",
"139 0 LINE"
);
},
{
closed = 1;
nodes = (
"429 0 LINE",
"310 340 LINE",
"290 332 LINE",
"405 0 LINE"
);
}
);
width = 580;
},
{
layerId = "4F25946F-63AC-42D6-8D55-01CF6A99025B";
paths = (
{
closed = 1;
nodes = (
"257 0 LINE",
"257 512 LINE",
"309 512 LINE SMOOTH",
"338 512 OFFCURVE",
"358 492 OFFCURVE",
"358 462 CURVE SMOOTH",
"358 432 OFFCURVE",
"338 412 OFFCURVE",
"309 412 CURVE SMOOTH",
"241 412 LINE",
"241 259 LINE",
"401 259 LINE SMOOTH",
"510 259 OFFCURVE",
"582 343 OFFCURVE",
"582 469 CURVE SMOOTH",
"582 608 OFFCURVE",
"498 700 OFFCURVE",
"371 700 CURVE SMOOTH",
"55 700 LINE",
"55 0 LINE"
);
},
{
closed = 1;
nodes = (
"597 0 LINE",
"424 320 LINE",
"208 320 LINE",
"359 0 LINE"
);
}
);
width = 599;
},
{
associatedMasterId = "4F25946F-63AC-42D6-8D55-01CF6A99025B";
layerId = "226A43B5-5CBD-42C7-8731-3A5BF7E3E8A0";
name = "Medium{91,100}";
paths = (
{
closed = 1;
nodes = (
"215 0 LINE",
"215 616 LINE",
"328 616 LINE SMOOTH",
"399 616 OFFCURVE",
"446 567 OFFCURVE",
"446 493 CURVE SMOOTH",
"446 419 OFFCURVE",
"399 370 OFFCURVE",
"328 370 CURVE SMOOTH",
"205 370 LINE",
"205 284 LINE",
"348 285 LINE SMOOTH",
"457 286 OFFCURVE",
"530 369 OFFCURVE",
"530 492 CURVE SMOOTH",
"530 619 OFFCURVE",
"453 700 OFFCURVE",
"337 700 CURVE SMOOTH",
"124 700 LINE",
"124 0 LINE"
);
},
{
closed = 1;
nodes = (
"504 0 LINE",
"374 332 LINE",
"280 327 LINE",
"398 0 LINE"
);
}
);
width = 610;
}
);
unicode = 0052;
},
{
color = 1;
glyphname = S;
lastChange = "2016-10-18 00:36:00 +0000";
layers = (
{
layerId = "262880E7-CFE1-4BDA-902E-E24798F3240A";
paths = (
{
closed = 1;
nodes = (
"377 -9 OFFCURVE",
"439 50 OFFCURVE",
"439 149 CURVE SMOOTH",
"439 255 OFFCURVE",
"367 306 OFFCURVE",
"284 361 CURVE SMOOTH",
"201 416 OFFCURVE",
"139 459 OFFCURVE",
"139 552 CURVE SMOOTH",
"139 636 OFFCURVE",
"191 690 OFFCURVE",
"275 690 CURVE SMOOTH",
"359 690 OFFCURVE",
"411 637 OFFCURVE",
"411 550 CURVE SMOOTH",
"411 500 LINE",
"433 500 LINE",
"433 550 LINE SMOOTH",
"433 650 OFFCURVE",
"373 709 OFFCURVE",
"275 709 CURVE SMOOTH",
"177 709 OFFCURVE",
"117 649 OFFCURVE",
"117 553 CURVE SMOOTH",
"117 446 OFFCURVE",
"192 394 OFFCURVE",
"270 342 CURVE SMOOTH",
"347 291 OFFCURVE",
"417 244 OFFCURVE",
"417 148 CURVE SMOOTH",
"417 63 OFFCURVE",
"363 11 OFFCURVE",
"276 11 CURVE SMOOTH",
"189 11 OFFCURVE",
"139 64 OFFCURVE",
"139 150 CURVE SMOOTH",
"139 210 LINE",
"119 210 LINE",
"119 150 LINE SMOOTH",
"119 50 OFFCURVE",
"176 -9 OFFCURVE",
"277 -9 CURVE SMOOTH"
);
}
);
width = 554;
},
{
layerId = "4F25946F-63AC-42D6-8D55-01CF6A99025B";
paths = (
{
closed = 1;
nodes = (
"428 -10 OFFCURVE",
"522 74 OFFCURVE",
"522 200 CURVE SMOOTH",
"522 312 OFFCURVE",
"448 381 OFFCURVE",
"335 425 CURVE SMOOTH",
"289 443 OFFCURVE",
"236 456 OFFCURVE",
"236 489 CURVE SMOOTH",
"236 503 OFFCURVE",
"246 518 OFFCURVE",
"270 518 CURVE SMOOTH",
"296 518 OFFCURVE",
"311 501 OFFCURVE",
"311 479 CURVE SMOOTH",
"311 464 LINE",
"523 474 LINE",
"523 479 LINE SMOOTH",
"523 617 OFFCURVE",
"416 710 OFFCURVE",
"264 710 CURVE SMOOTH",
"117 710 OFFCURVE",
"21 624 OFFCURVE",
"21 498 CURVE SMOOTH",
"21 389 OFFCURVE",
"94 318 OFFCURVE",
"208 275 CURVE SMOOTH",
"250 259 OFFCURVE",
"306 245 OFFCURVE",
"306 214 CURVE SMOOTH",
"306 201 OFFCURVE",
"297 182 OFFCURVE",
"271 182 CURVE SMOOTH",
"247 182 OFFCURVE",
"232 199 OFFCURVE",
"232 231 CURVE SMOOTH",
"232 236 LINE",
"9 226 LINE",
"9 221 LINE SMOOTH",
"9 83 OFFCURVE",
"115 -10 OFFCURVE",
"275 -10 CURVE SMOOTH"
);
}
);
width = 537;
}
);
unicode = 0053;
},
{
color = 1;
glyphname = T;
lastChange = "2016-10-18 00:36:01 +0000";
layers = (
{
layerId = "262880E7-CFE1-4BDA-902E-E24798F3240A";
paths = (
{
closed = 1;
nodes = (
"269 0 LINE",
"269 689 LINE",
"247 689 LINE",
"247 0 LINE"
);
},
{
closed = 1;
nodes = (
"423 679 LINE",
"423 700 LINE",
"101 700 LINE",
"101 679 LINE"
);
}
);
width = 524;
},
{
layerId = "4F25946F-63AC-42D6-8D55-01CF6A99025B";
paths = (
{
closed = 1;
nodes = (
"350 0 LINE",
"350 606 LINE",
"138 606 LINE",
"138 0 LINE"
);
},
{
closed = 1;
nodes = (
"498 500 LINE",
"498 700 LINE",
"-10 700 LINE",
"-10 500 LINE"
);
}
);
width = 488;
}
);
unicode = 0054;
},
{
color = 1;
glyphname = U;
lastChange = "2016-10-18 00:36:00 +0000";
layers = (
{
layerId = "262880E7-CFE1-4BDA-902E-E24798F3240A";
paths = (
{
closed = 1;
nodes = (
"395 -9 OFFCURVE",
"457 50 OFFCURVE",
"457 150 CURVE SMOOTH",
"457 700 LINE",
"435 700 LINE",
"435 150 LINE SMOOTH",
"435 64 OFFCURVE",
"383 11 OFFCURVE",
"296 11 CURVE SMOOTH",
"209 11 OFFCURVE",
"157 64 OFFCURVE",
"157 150 CURVE SMOOTH",
"157 700 LINE",
"135 700 LINE",
"135 150 LINE SMOOTH",
"135 50 OFFCURVE",
"197 -9 OFFCURVE",
"296 -9 CURVE SMOOTH"
);
}
);
width = 592;
},
{
layerId = "4F25946F-63AC-42D6-8D55-01CF6A99025B";
paths = (
{
closed = 1;
nodes = (
"452 -10 OFFCURVE",
"554 88 OFFCURVE",
"554 234 CURVE SMOOTH",
"554 700 LINE",
"342 700 LINE",
"342 234 LINE SMOOTH",
"342 200 OFFCURVE",
"324 178 OFFCURVE",
"298 178 CURVE SMOOTH",
"272 178 OFFCURVE",
"254 200 OFFCURVE",
"254 234 CURVE SMOOTH",
"254 700 LINE",
"42 700 LINE",
"42 234 LINE SMOOTH",
"42 88 OFFCURVE",
"144 -10 OFFCURVE",
"298 -10 CURVE SMOOTH"
);
}
);
width = 596;
}
);
unicode = 0055;
},
{
color = 1;
glyphname = V;
lastChange = "2016-10-18 00:36:01 +0000";
layers = (
{
layerId = "262880E7-CFE1-4BDA-902E-E24798F3240A";
paths = (
{
closed = 1;
nodes = (
"291 0 LINE",
"456 700 LINE",
"434 700 LINE",
"280 40 LINE",
"126 700 LINE",
"104 700 LINE",
"269 0 LINE"
);
}
);
width = 560;
},
{
layerId = "4F25946F-63AC-42D6-8D55-01CF6A99025B";
paths = (
{
closed = 1;
nodes = (
"368 0 LINE",
"538 700 LINE",
"323 700 LINE",
"262 300 LINE",
"201 700 LINE",
"-14 700 LINE",
"156 0 LINE"
);
}
);
width = 524;
},
{
associatedMasterId = "262880E7-CFE1-4BDA-902E-E24798F3240A";
layerId = "4E067D8C-FFB4-48BF-AEBE-68DF3842147F";
name = "Medium {91,100}";
paths = (
{
closed = 1;
nodes = (
"327 0 LINE",
"493 700 LINE",
"398 700 LINE",
"279 147 LINE",
"161 700 LINE",
"65 700 LINE",
"232 0 LINE"
);
}
);
width = 558;
}
);
unicode = 0056;
},
{
color = 1;
glyphname = W;
lastChange = "2016-10-18 00:36:00 +0000";
layers = (
{
layerId = "262880E7-CFE1-4BDA-902E-E24798F3240A";
paths = (
{
closed = 1;
nodes = (
"253 0 LINE",
"367 648 LINE",
"481 0 LINE",
"503 0 LINE",
"628 700 LINE",
"606 700 LINE",
"492 52 LINE",
"378 700 LINE",
"356 700 LINE",
"242 52 LINE",
"128 700 LINE",
"106 700 LINE",
"231 0 LINE"
);
}
);
width = 734;
},
{
layerId = "4F25946F-63AC-42D6-8D55-01CF6A99025B";
paths = (
{
closed = 1;
nodes = (
"362 1 LINE",
"398 307 LINE",
"434 1 LINE",
"652 1 LINE",
"806 700 LINE",
"590 700 LINE",
"545 363 LINE",
"503 699 LINE",
"293 699 LINE",
"251 363 LINE",
"206 700 LINE",
"-10 700 LINE",
"144 1 LINE"
);
}
);
width = 796;
},
{
associatedMasterId = "4F25946F-63AC-42D6-8D55-01CF6A99025B";
layerId = "11607437-4DCD-4C94-9EDA-1AD54BE1AE48";
name = "Medium { 91, 100}";
paths = (
{
closed = 1;
nodes = (
"300 0 LINE",
"384 528 LINE",
"469 0 LINE",
"562 0 LINE",
"698 700 LINE",
"605 700 LINE",
"519 160 LINE",
"432 700 LINE",
"336 700 LINE",
"250 160 LINE",
"163 700 LINE",
"70 700 LINE",
"207 0 LINE"
);
}
);
width = 773;
}
);
unicode = 0057;
},
{
color = 1;
glyphname = X;
lastChange = "2016-10-18 00:36:01 +0000";
layers = (
{
layerId = "262880E7-CFE1-4BDA-902E-E24798F3240A";
paths = (
{
closed = 1;
nodes = (
"413 700 LINE",
"270 376 LINE",
"127 700 LINE",
"104 700 LINE",
"259 350 LINE",
"104 0 LINE",
"127 0 LINE",
"270 324 LINE",
"413 0 LINE",
"436 0 LINE",
"282 350 LINE",
"436 700 LINE"
);
}
);
width = 540;
},
{
layerId = "4F25946F-63AC-42D6-8D55-01CF6A99025B";
paths = (
{
closed = 1;
nodes = (
"356 700 LINE",
"289 559 LINE",
"222 700 LINE",
"-16 700 LINE",
"172 350 LINE",
"-16 0 LINE",
"222 0 LINE",
"289 141 LINE",
"356 0 LINE",
"594 0 LINE",
"406 350 LINE",
"594 700 LINE"
);
}
);
width = 578;
},
{
associatedMasterId = "4F25946F-63AC-42D6-8D55-01CF6A99025B";
layerId = "A81EC77E-A514-41C1-A690-EF61EA7402F1";
name = "Bold Oct 15 16, 02:50";
paths = (
{
closed = 1;
nodes = (
"4 700 LINE",
"242 700 LINE",
"582 0 LINE",
"344 0 LINE"
);
},
{
closed = 1;
nodes = (
"344 700 LINE",
"582 700 LINE",
"242 0 LINE",
"4 0 LINE"
);
}
);
width = 586;
},
{
associatedMasterId = "262880E7-CFE1-4BDA-902E-E24798F3240A";
layerId = "F2B2385B-1C24-46F1-AB29-8D87B4EEE0C2";
name = "DEMIBOLD{119,100}";
paths = (
{
closed = 1;
nodes = (
"366 700 LINE",
"269 471 LINE",
"173 700 LINE",
"41 700 LINE",
"204 350 LINE",
"41 0 LINE",
"173 0 LINE",
"269 229 LINE",
"366 0 LINE",
"497 0 LINE",
"335 350 LINE",
"497 700 LINE"
);
}
);
width = 539;
},
{
associatedMasterId = "262880E7-CFE1-4BDA-902E-E24798F3240A";
layerId = "077702AC-624F-4016-8C7C-9CDBE6837B88";
name = "Light Oct 16 16, 21:49";
paths = (
{
closed = 1;
nodes = (
"441 700 LINE",
"298 376 LINE",
"155 700 LINE",
"132 700 LINE",
"287 350 LINE",
"132 0 LINE",
"155 0 LINE",
"298 324 LINE",
"441 0 LINE",
"464 0 LINE",
"310 350 LINE",
"464 700 LINE"
);
}
);
width = 596;
}
);
unicode = 0058;
},
{
color = 1;
glyphname = Y;
lastChange = "2016-10-18 00:36:01 +0000";
layers = (
{
layerId = "262880E7-CFE1-4BDA-902E-E24798F3240A";
paths = (
{
closed = 1;
nodes = (
"436 700 LINE",
"411 700 LINE",
"269 379 LINE",
"128 700 LINE",
"102 700 LINE",
"269 328 LINE"
);
},
{
closed = 1;
nodes = (
"280 0 LINE",
"280 350 LINE",
"258 350 LINE",
"258 0 LINE"
);
}
);
width = 538;
},
{
layerId = "4F25946F-63AC-42D6-8D55-01CF6A99025B";
paths = (
{
closed = 1;
nodes = (
"609 700 LINE",
"383 700 LINE",
"296 479 LINE",
"208 700 LINE",
"-28 700 LINE",
"295 12 LINE"
);
},
{
closed = 1;
nodes = (
"403 0 LINE",
"403 350 LINE",
"187 350 LINE",
"187 0 LINE"
);
}
);
width = 582;
}
);
unicode = 0059;
},
{
color = 1;
glyphname = Z;
lastChange = "2016-10-18 00:36:01 +0000";
layers = (
{
layerId = "262880E7-CFE1-4BDA-902E-E24798F3240A";
paths = (
{
closed = 1;
nodes = (
"419 0 LINE",
"419 22 LINE",
"135 22 LINE",
"435 700 LINE",
"119 700 LINE",
"119 679 LINE",
"403 679 LINE",
"103 0 LINE"
);
}
);
width = 538;
},
{
layerId = "4F25946F-63AC-42D6-8D55-01CF6A99025B";
paths = (
{
closed = 1;
nodes = (
"474 0 LINE",
"474 198 LINE",
"284 198 LINE",
"474 700 LINE",
"9 700 LINE",
"9 502 LINE",
"204 502 LINE",
"6 0 LINE"
);
}
);
width = 482;
}
);
unicode = 005A;
},
{
color = 1;
glyphname = a;
lastChange = "2016-10-18 00:36:00 +0000";
layers = (
{
layerId = "262880E7-CFE1-4BDA-902E-E24798F3240A";
paths = (
{
closed = 1;
nodes = (
"356 -7 OFFCURVE",
"415 56 OFFCURVE",
"415 156 CURVE SMOOTH",
"415 344 LINE SMOOTH",
"415 444 OFFCURVE",
"356 507 OFFCURVE",
"260 507 CURVE SMOOTH",
"163 507 OFFCURVE",
"100 446 OFFCURVE",
"100 346 CURVE SMOOTH",
"100 154 LINE SMOOTH",
"100 54 OFFCURVE",
"163 -7 OFFCURVE",
"260 -7 CURVE SMOOTH"
);
},
{
closed = 1;
nodes = (
"174 15 OFFCURVE",
"122 68 OFFCURVE",
"122 154 CURVE SMOOTH",
"122 346 LINE SMOOTH",
"122 432 OFFCURVE",
"176 486 OFFCURVE",
"261 486 CURVE SMOOTH",
"346 486 OFFCURVE",
"400 432 OFFCURVE",
"400 346 CURVE SMOOTH",
"400 154 LINE SMOOTH",
"400 68 OFFCURVE",
"348 15 OFFCURVE",
"261 15 CURVE SMOOTH"
);
},
{
closed = 1;
nodes = (
"422 0 LINE",
"422 500 LINE",
"400 500 LINE",
"400 0 LINE"
);
}
);
width = 533;
},
{
layerId = "4F25946F-63AC-42D6-8D55-01CF6A99025B";
paths = (
{
closed = 1;
nodes = (
"321 -5 OFFCURVE",
"401 88 OFFCURVE",
"401 240 CURVE SMOOTH",
"401 254 LINE SMOOTH",
"401 411 OFFCURVE",
"321 504 OFFCURVE",
"191 504 CURVE",
"86 504 OFFCURVE",
"22 415 OFFCURVE",
"22 318 CURVE SMOOTH",
"22 160 LINE SMOOTH",
"22 59 OFFCURVE",
"86 -3 OFFCURVE",
"191 -4 CURVE SMOOTH"
);
},
{
closed = 1;
nodes = (
"247 165 OFFCURVE",
"230 181 OFFCURVE",
"230 206 CURVE SMOOTH",
"230 298 LINE SMOOTH",
"230 323 OFFCURVE",
"247 339 OFFCURVE",
"273 339 CURVE SMOOTH",
"299 339 OFFCURVE",
"317 323 OFFCURVE",
"317 298 CURVE SMOOTH",
"317 206 LINE SMOOTH",
"317 181 OFFCURVE",
"299 165 OFFCURVE",
"273 165 CURVE SMOOTH"
);
},
{
closed = 1;
nodes = (
"524 0 LINE",
"524 500 LINE",
"317 500 LINE",
"317 0 LINE"
);
}
);
width = 568;
},
{
associatedMasterId = "4F25946F-63AC-42D6-8D55-01CF6A99025B";
layerId = "47FC566B-2B97-4943-A9EB-638501BAD42D";
name = "DemiBold{119,100}";
paths = (
{
closed = 1;
nodes = (
"348 -6 OFFCURVE",
"419 83 OFFCURVE",
"419 171 CURVE SMOOTH",
"419 336 LINE SMOOTH",
"419 416 OFFCURVE",
"348 505 OFFCURVE",
"234 505 CURVE SMOOTH",
"133 505 OFFCURVE",
"69 447 OFFCURVE",
"69 348 CURVE SMOOTH",
"69 157 LINE SMOOTH",
"69 57 OFFCURVE",
"133 -5 OFFCURVE",
"234 -5 CURVE SMOOTH"
);
},
{
closed = 1;
nodes = (
"224 95 OFFCURVE",
"191 129 OFFCURVE",
"191 182 CURVE SMOOTH",
"191 320 LINE SMOOTH",
"191 374 OFFCURVE",
"225 407 OFFCURVE",
"278 407 CURVE SMOOTH",
"332 407 OFFCURVE",
"367 374 OFFCURVE",
"367 320 CURVE SMOOTH",
"367 182 LINE SMOOTH",
"367 129 OFFCURVE",
"333 95 OFFCURVE",
"278 95 CURVE SMOOTH"
);
},
{
closed = 1;
nodes = (
"488 0 LINE",
"488 500 LINE",
"367 500 LINE",
"367 0 LINE"
);
}
);
width = 572;
visible = 1;
}
);
unicode = 0061;
},
{
color = 1;
glyphname = b;
lastChange = "2016-10-18 00:36:01 +0000";
layers = (
{
layerId = "262880E7-CFE1-4BDA-902E-E24798F3240A";
paths = (
{
closed = 1;
nodes = (
"133 0 LINE",
"133 700 LINE",
"111 700 LINE",
"111 0 LINE"
);
},
{
closed = 1;
nodes = (
"373 -7 OFFCURVE",
"433 54 OFFCURVE",
"433 154 CURVE SMOOTH",
"433 346 LINE SMOOTH",
"433 446 OFFCURVE",
"373 507 OFFCURVE",
"275 507 CURVE SMOOTH",
"177 507 OFFCURVE",
"113 444 OFFCURVE",
"113 344 CURVE SMOOTH",
"113 156 LINE SMOOTH",
"113 56 OFFCURVE",
"177 -7 OFFCURVE",
"275 -7 CURVE SMOOTH"
);
},
{
closed = 1;
nodes = (
"186 15 OFFCURVE",
"133 68 OFFCURVE",
"133 154 CURVE SMOOTH",
"133 346 LINE SMOOTH",
"133 433 OFFCURVE",
"186 486 OFFCURVE",
"272 486 CURVE SMOOTH",
"358 486 OFFCURVE",
"411 433 OFFCURVE",
"411 346 CURVE SMOOTH",
"411 154 LINE SMOOTH",
"411 68 OFFCURVE",
"358 15 OFFCURVE",
"272 15 CURVE SMOOTH"
);
}
);
width = 533;
},
{
layerId = "4F25946F-63AC-42D6-8D55-01CF6A99025B";
paths = (
{
closed = 1;
nodes = (
"251 0 LINE",
"251 700 LINE",
"44 700 LINE",
"44 0 LINE"
);
},
{
closed = 1;
nodes = (
"482 -3 OFFCURVE",
"546 59 OFFCURVE",
"546 160 CURVE SMOOTH",
"546 318 LINE SMOOTH",
"546 415 OFFCURVE",
"482 504 OFFCURVE",
"377 504 CURVE",
"247 504 OFFCURVE",
"167 411 OFFCURVE",
"167 254 CURVE SMOOTH",
"167 240 LINE SMOOTH",
"167 88 OFFCURVE",
"247 -5 OFFCURVE",
"377 -4 CURVE SMOOTH"
);
},
{
closed = 1;
nodes = (
"269 165 OFFCURVE",
"251 181 OFFCURVE",
"251 206 CURVE SMOOTH",
"251 298 LINE SMOOTH",
"251 323 OFFCURVE",
"269 339 OFFCURVE",
"295 339 CURVE SMOOTH",
"321 339 OFFCURVE",
"338 323 OFFCURVE",
"338 298 CURVE SMOOTH",
"338 206 LINE SMOOTH",
"338 181 OFFCURVE",
"321 165 OFFCURVE",
"295 165 CURVE SMOOTH"
);
}
);
width = 568;
},
{
associatedMasterId = "4F25946F-63AC-42D6-8D55-01CF6A99025B";
layerId = "93BAF2E2-22D9-4221-A5AC-BC4294365A74";
name = "DemiBold {119,100}";
paths = (
{
closed = 1;
nodes = (
"197 -1 LINE",
"197 700 LINE",
"77 700 LINE",
"77 -1 LINE"
);
},
{
closed = 1;
nodes = (
"426 -6 OFFCURVE",
"494 57 OFFCURVE",
"494 157 CURVE SMOOTH",
"494 348 LINE SMOOTH",
"494 447 OFFCURVE",
"427 507 OFFCURVE",
"320 507 CURVE SMOOTH",
"189 507 OFFCURVE",
"129 416 OFFCURVE",
"129 301 CURVE SMOOTH",
"129 196 LINE SMOOTH",
"129 72 OFFCURVE",
"199 -6 OFFCURVE",
"319 -6 CURVE SMOOTH"
);
},
{
closed = 1;
nodes = (
"230 95 OFFCURVE",
"197 128 OFFCURVE",
"197 182 CURVE SMOOTH",
"197 320 LINE SMOOTH",
"197 374 OFFCURVE",
"230 407 OFFCURVE",
"285 407 CURVE SMOOTH",
"340 407 OFFCURVE",
"373 374 OFFCURVE",
"373 320 CURVE SMOOTH",
"373 182 LINE SMOOTH",
"373 128 OFFCURVE",
"340 95 OFFCURVE",
"285 95 CURVE SMOOTH"
);
}
);
width = 571;
visible = 1;
}
);
unicode = 0062;
},
{
color = 1;
glyphname = c;
lastChange = "2016-10-18 00:36:01 +0000";
layers = (
{
layerId = "262880E7-CFE1-4BDA-902E-E24798F3240A";
paths = (
{
closed = 1;
nodes = (
"360 -5 OFFCURVE",
"422 54 OFFCURVE",
"422 154 CURVE SMOOTH",
"422 157 LINE",
"400 157 LINE",
"400 154 LINE SMOOTH",
"400 68 OFFCURVE",
"348 15 OFFCURVE",
"261 15 CURVE SMOOTH",
"174 15 OFFCURVE",
"122 68 OFFCURVE",
"122 154 CURVE SMOOTH",
"122 346 LINE SMOOTH",
"122 433 OFFCURVE",
"176 486 OFFCURVE",
"261 486 CURVE SMOOTH",
"346 486 OFFCURVE",
"400 433 OFFCURVE",
"400 346 CURVE SMOOTH",
"400 344 LINE",
"422 344 LINE",
"422 346 LINE SMOOTH",
"422 446 OFFCURVE",
"360 505 OFFCURVE",
"261 505 CURVE SMOOTH",
"162 505 OFFCURVE",
"100 446 OFFCURVE",
"100 346 CURVE SMOOTH",
"100 154 LINE SMOOTH",
"100 54 OFFCURVE",
"162 -5 OFFCURVE",
"261 -5 CURVE SMOOTH"
);
}
);
width = 509;
},
{
layerId = "4F25946F-63AC-42D6-8D55-01CF6A99025B";
paths = (
{
closed = 1;
nodes = (
"411 -3 OFFCURVE",
"506 81 OFFCURVE",
"516 232 CURVE",
"516 234 LINE",
"305 234 LINE",
"305 207 LINE SMOOTH",
"305 182 OFFCURVE",
"287 166 OFFCURVE",
"261 166 CURVE SMOOTH",
"235 166 OFFCURVE",
"218 182 OFFCURVE",
"218 207 CURVE",
"218 297 LINE",
"218 322 OFFCURVE",
"235 338 OFFCURVE",
"261 338 CURVE SMOOTH",
"287 338 OFFCURVE",
"305 322 OFFCURVE",
"305 297 CURVE",
"305 276 LINE",
"516 276 LINE",
"516 278 LINE",
"514 422 OFFCURVE",
"419 503 OFFCURVE",
"260 503 CURVE SMOOTH",
"100 503 OFFCURVE",
"6 414 OFFCURVE",
"6 255 CURVE SMOOTH",
"6 248 LINE SMOOTH",
"6 87 OFFCURVE",
"100 -3 OFFCURVE",
"259 -3 CURVE SMOOTH"
);
}
);
width = 521;
},
{
associatedMasterId = "4F25946F-63AC-42D6-8D55-01CF6A99025B";
layerId = "7B6958F8-F0D4-40F0-82E9-17D44A566858";
name = "DemiBold{119,100}";
paths = (
{
closed = 1;
nodes = (
"407 -9 OFFCURVE",
"479 60 OFFCURVE",
"484 195 CURVE SMOOTH",
"484 198 LINE",
"361 198 LINE",
"361 198 LINE SMOOTH",
"361 146 OFFCURVE",
"326 105 OFFCURVE",
"273 105 CURVE SMOOTH",
"220 105 OFFCURVE",
"185 146 OFFCURVE",
"185 198 CURVE SMOOTH",
"185 310 LINE SMOOTH",
"185 362 OFFCURVE",
"220 400 OFFCURVE",
"273 400 CURVE SMOOTH",
"326 400 OFFCURVE",
"361 362 OFFCURVE",
"361 310 CURVE SMOOTH",
"361 308 LINE",
"484 308 LINE",
"484 310 LINE SMOOTH",
"483 441 OFFCURVE",
"411 509 OFFCURVE",
"272 509 CURVE SMOOTH",
"133 509 OFFCURVE",
"62 437 OFFCURVE",
"62 298 CURVE SMOOTH",
"62 204 LINE SMOOTH",
"62 63 OFFCURVE",
"133 -9 OFFCURVE",
"272 -9 CURVE SMOOTH"
);
}
);
width = 559;
}
);
unicode = 0063;
},
{
color = 1;
glyphname = e;
lastChange = "2016-10-18 00:36:01 +0000";
layers = (
{
layerId = "262880E7-CFE1-4BDA-902E-E24798F3240A";
paths = (
{
closed = 1;
nodes = (
"360 -5 OFFCURVE",
"422 54 OFFCURVE",
"422 154 CURVE SMOOTH",
"422 158 LINE",
"400 158 LINE",
"400 154 LINE SMOOTH",
"400 68 OFFCURVE",
"348 15 OFFCURVE",
"261 15 CURVE SMOOTH",
"174 15 OFFCURVE",
"122 68 OFFCURVE",
"122 154 CURVE SMOOTH",
"122 346 LINE SMOOTH",
"122 433 OFFCURVE",
"176 486 OFFCURVE",
"261 486 CURVE SMOOTH",
"346 486 OFFCURVE",
"400 433 OFFCURVE",
"400 346 CURVE SMOOTH",
"400 261 LINE",
"117 261 LINE",
"117 240 LINE",
"422 240 LINE",
"422 346 LINE SMOOTH",
"422 446 OFFCURVE",
"360 505 OFFCURVE",
"261 505 CURVE SMOOTH",
"162 505 OFFCURVE",
"100 446 OFFCURVE",
"100 346 CURVE SMOOTH",
"100 154 LINE SMOOTH",
"100 54 OFFCURVE",
"162 -5 OFFCURVE",
"261 -5 CURVE SMOOTH"
);
}
);
width = 517;
},
{
layerId = "4F25946F-63AC-42D6-8D55-01CF6A99025B";
paths = (
{
closed = 1;
nodes = (
"412 -4 OFFCURVE",
"507 66 OFFCURVE",
"516 193 CURVE",
"516 193 LINE",
"316 193 LINE",
"316 193 LINE",
"312 164 OFFCURVE",
"288 152 OFFCURVE",
"262 152 CURVE SMOOTH",
"236 152 OFFCURVE",
"219 168 OFFCURVE",
"219 193 CURVE SMOOTH",
"219 318 LINE SMOOTH",
"219 344 OFFCURVE",
"236 359 OFFCURVE",
"262 359 CURVE SMOOTH",
"288 359 OFFCURVE",
"305 344 OFFCURVE",
"305 318 CURVE SMOOTH",
"305 299 LINE",
"202 299 LINE",
"202 231 LINE",
"516 231 LINE",
"516 262 LINE",
"514 417 OFFCURVE",
"420 504 OFFCURVE",
"261 504 CURVE SMOOTH",
"101 504 OFFCURVE",
"7 415 OFFCURVE",
"7 256 CURVE SMOOTH",
"7 247 LINE SMOOTH",
"7 86 OFFCURVE",
"101 -4 OFFCURVE",
"260 -4 CURVE SMOOTH"
);
}
);
width = 524;
},
{
associatedMasterId = "4F25946F-63AC-42D6-8D55-01CF6A99025B";
layerId = "A8631AE8-6F64-4109-B373-5711B024CF55";
name = "DemiBold {119,100}";
paths = (
{
closed = 1;
nodes = (
"400 -7 OFFCURVE",
"484 56 OFFCURVE",
"484 160 CURVE SMOOTH",
"484 161 LINE",
"361 162 LINE",
"361 158 LINE SMOOTH",
"361 123 OFFCURVE",
"324 101 OFFCURVE",
"273 101 CURVE SMOOTH",
"219 101 OFFCURVE",
"186 134 OFFCURVE",
"186 188 CURVE SMOOTH",
"186 319 LINE SMOOTH",
"186 373 OFFCURVE",
"219 406 OFFCURVE",
"273 406 CURVE SMOOTH",
"328 406 OFFCURVE",
"361 373 OFFCURVE",
"361 319 CURVE SMOOTH",
"361 290 LINE",
"174 290 LINE",
"174 211 LINE",
"484 211 LINE",
"484 301 LINE SMOOTH",
"484 429 OFFCURVE",
"404 507 OFFCURVE",
"273 507 CURVE SMOOTH",
"142 507 OFFCURVE",
"62 428 OFFCURVE",
"62 298 CURVE SMOOTH",
"62 204 LINE SMOOTH",
"62 73 OFFCURVE",
"142 -7 OFFCURVE",
"272 -7 CURVE SMOOTH"
);
}
);
width = 543;
visible = 1;
}
);
unicode = 0065;
},
{
color = 1;
glyphname = f;
lastChange = "2016-10-18 00:36:00 +0000";
layers = (
{
layerId = "262880E7-CFE1-4BDA-902E-E24798F3240A";
paths = (
{
closed = 1;
nodes = (
"165 -1 LINE",
"165 550 LINE SMOOTH",
"165 637 OFFCURVE",
"218 690 OFFCURVE",
"304 690 CURVE",
"304 711 LINE",
"204 711 OFFCURVE",
"143 650 OFFCURVE",
"143 550 CURVE SMOOTH",
"143 -1 LINE"
);
},
{
closed = 1;
nodes = (
"274 479 LINE",
"274 500 LINE",
"74 500 LINE",
"74 479 LINE"
);
}
);
width = 348;
},
{
layerId = "4F25946F-63AC-42D6-8D55-01CF6A99025B";
paths = (
{
closed = 1;
nodes = (
"248 8 LINE",
"248 525 LINE",
"248 545 OFFCURVE",
"270 551 OFFCURVE",
"292 551 CURVE",
"292 693 LINE",
"152 700 OFFCURVE",
"63 690 OFFCURVE",
"63 549 CURVE",
"63 8 LINE"
);
},
{
closed = 1;
nodes = (
"310 326 LINE",
"310 500 LINE",
"17 500 LINE",
"17 326 LINE"
);
}
);
width = 318;
},
{
associatedMasterId = "4F25946F-63AC-42D6-8D55-01CF6A99025B";
layerId = "AF0A8C32-09C6-404E-AFE0-A8C575E5B58A";
name = "Medium{91,100}";
paths = (
{
closed = 1;
nodes = (
"194 2 LINE",
"194 550 LINE SMOOTH",
"194 616 OFFCURVE",
"240 630 OFFCURVE",
"295 630 CURVE",
"296 700 LINE",
"181 703 OFFCURVE",
"110 665 OFFCURVE",
"110 550 CURVE SMOOTH",
"110 2 LINE"
);
},
{
closed = 1;
nodes = (
"285 421 LINE",
"285 500 LINE",
"49 500 LINE",
"49 421 LINE"
);
}
);
width = 320;
}
);
unicode = 0066;
},
{
color = 1;
glyphname = g;
lastChange = "2016-10-18 00:36:01 +0000";
layers = (
{
layerId = "262880E7-CFE1-4BDA-902E-E24798F3240A";
paths = (
{
closed = 1;
nodes = (
"356 -5 OFFCURVE",
"415 56 OFFCURVE",
"415 156 CURVE SMOOTH",
"415 344 LINE SMOOTH",
"415 444 OFFCURVE",
"356 505 OFFCURVE",
"258 505 CURVE SMOOTH",
"160 505 OFFCURVE",
"100 445 OFFCURVE",
"100 346 CURVE SMOOTH",
"100 154 LINE SMOOTH",
"100 55 OFFCURVE",
"160 -5 OFFCURVE",
"259 -5 CURVE"
);
},
{
closed = 1;
nodes = (
"175 17 OFFCURVE",
"122 70 OFFCURVE",
"122 156 CURVE SMOOTH",
"122 344 LINE SMOOTH",
"122 431 OFFCURVE",
"175 484 OFFCURVE",
"261 484 CURVE SMOOTH",
"347 484 OFFCURVE",
"400 431 OFFCURVE",
"400 344 CURVE SMOOTH",
"400 156 LINE SMOOTH",
"400 70 OFFCURVE",
"347 17 OFFCURVE",
"261 17 CURVE SMOOTH"
);
},
{
closed = 1;
nodes = (
"349 -206 OFFCURVE",
"422 -140 OFFCURVE",
"422 0 CURVE SMOOTH",
"422 500 LINE",
"400 500 LINE",
"400 0 LINE SMOOTH",
"400 -126 OFFCURVE",
"334 -185 OFFCURVE",
"215 -181 CURVE",
"215 -202 LINE"
);
}
);
width = 533;
},
{
layerId = "4F25946F-63AC-42D6-8D55-01CF6A99025B";
paths = (
{
closed = 1;
nodes = (
"324 -5 OFFCURVE",
"404 88 OFFCURVE",
"404 240 CURVE SMOOTH",
"404 254 LINE SMOOTH",
"404 411 OFFCURVE",
"324 504 OFFCURVE",
"194 504 CURVE",
"89 504 OFFCURVE",
"25 447 OFFCURVE",
"25 350 CURVE SMOOTH",
"25 160 LINE SMOOTH",
"25 59 OFFCURVE",
"89 -3 OFFCURVE",
"194 -4 CURVE SMOOTH"
);
},
{
closed = 1;
nodes = (
"244 165 OFFCURVE",
"227 181 OFFCURVE",
"227 206 CURVE SMOOTH",
"227 298 LINE SMOOTH",
"227 323 OFFCURVE",
"244 339 OFFCURVE",
"270 339 CURVE SMOOTH",
"296 339 OFFCURVE",
"314 323 OFFCURVE",
"314 298 CURVE SMOOTH",
"314 206 LINE SMOOTH",
"314 181 OFFCURVE",
"296 165 OFFCURVE",
"270 165 CURVE SMOOTH"
);
},
{
closed = 1;
nodes = (
"459 -226 OFFCURVE",
"526 -115 OFFCURVE",
"526 34 CURVE SMOOTH",
"526 500 LINE",
"314 500 LINE",
"314 34 LINE SMOOTH",
"314 -14 OFFCURVE",
"297 -44 OFFCURVE",
"153 -36 CURVE",
"153 -207 LINE"
);
}
);
width = 570;
},
{
associatedMasterId = "4F25946F-63AC-42D6-8D55-01CF6A99025B";
layerId = "B6BF2724-269E-425D-BD22-36C93A6CFDCE";
name = "Medium {91, 100}";
paths = (
{
closed = 1;
nodes = (
"372 -6 OFFCURVE",
"440 74 OFFCURVE",
"440 192 CURVE SMOOTH",
"440 292 LINE SMOOTH",
"440 375 OFFCURVE",
"402 504 OFFCURVE",
"260 504 CURVE SMOOTH",
"163 504 OFFCURVE",
"83 445 OFFCURVE",
"83 348 CURVE SMOOTH",
"83 156 LINE SMOOTH",
"83 55 OFFCURVE",
"158 -4 OFFCURVE",
"256 -5 CURVE"
);
},
{
closed = 1;
nodes = (
"213 72 OFFCURVE",
"174 111 OFFCURVE",
"174 174 CURVE SMOOTH",
"174 326 LINE SMOOTH",
"174 389 OFFCURVE",
"213 428 OFFCURVE",
"277 428 CURVE SMOOTH",
"340 428 OFFCURVE",
"380 389 OFFCURVE",
"380 326 CURVE SMOOTH",
"380 174 LINE SMOOTH",
"380 111 OFFCURVE",
"340 72 OFFCURVE",
"277 72 CURVE SMOOTH"
);
},
{
closed = 1;
nodes = (
"410 -217 OFFCURVE",
"474 -137 OFFCURVE",
"474 -18 CURVE SMOOTH",
"474 500 LINE",
"380 500 LINE",
"380 -18 LINE SMOOTH",
"380 -90 OFFCURVE",
"340 -135 OFFCURVE",
"220 -131 CURVE",
"220 -209 LINE"
);
}
);
width = 573;
}
);
unicode = 0067;
},
{
color = 1;
glyphname = h;
lastChange = "2016-10-18 00:36:00 +0000";
layers = (
{
layerId = "262880E7-CFE1-4BDA-902E-E24798F3240A";
paths = (
{
closed = 1;
nodes = (
"433 0 LINE",
"433 346 LINE SMOOTH",
"433 446 OFFCURVE",
"371 505 OFFCURVE",
"274 505 CURVE SMOOTH",
"176 505 OFFCURVE",
"117 444 OFFCURVE",
"117 344 CURVE",
"133 344 LINE",
"133 431 OFFCURVE",
"187 484 OFFCURVE",
"272 484 CURVE SMOOTH",
"357 484 OFFCURVE",
"411 431 OFFCURVE",
"411 344 CURVE SMOOTH",
"411 0 LINE"
);
},
{
closed = 1;
nodes = (
"133 0 LINE",
"133 700 LINE",
"111 700 LINE",
"111 0 LINE"
);
}
);
width = 539;
},
{
layerId = "4F25946F-63AC-42D6-8D55-01CF6A99025B";
paths = (
{
closed = 1;
nodes = (
"546 0 LINE",
"546 350 LINE SMOOTH",
"546 441 OFFCURVE",
"495 510 OFFCURVE",
"379 510 CURVE SMOOTH",
"230 510 OFFCURVE",
"187 396 OFFCURVE",
"187 294 CURVE",
"252 294 LINE",
"252 321 OFFCURVE",
"269 339 OFFCURVE",
"295 339 CURVE SMOOTH",
"321 339 OFFCURVE",
"339 321 OFFCURVE",
"339 294 CURVE SMOOTH",
"339 0 LINE"
);
},
{
closed = 1;
nodes = (
"252 0 LINE",
"252 700 LINE",
"44 700 LINE",
"44 0 LINE"
);
}
);
width = 582;
},
{
associatedMasterId = "4F25946F-63AC-42D6-8D55-01CF6A99025B";
layerId = "6DA8EE20-322F-490D-912C-EA80E03ECB77";
name = "Medium {91, 100}";
paths = (
{
closed = 1;
nodes = (
"490 0 LINE",
"490 348 LINE SMOOTH",
"490 444 OFFCURVE",
"430 507 OFFCURVE",
"322 507 CURVE SMOOTH",
"209 507 OFFCURVE",
"148 437 OFFCURVE",
"148 326 CURVE",
"192 326 LINE",
"192 390 OFFCURVE",
"232 430 OFFCURVE",
"294 430 CURVE SMOOTH",
"357 430 OFFCURVE",
"397 390 OFFCURVE",
"397 326 CURVE SMOOTH",
"397 0 LINE"
);
},
{
closed = 1;
nodes = (
"192 0 LINE",
"192 700 LINE",
"99 700 LINE",
"99 0 LINE"
);
}
);
width = 582;
}
);
unicode = 0068;
},
{
color = 1;
glyphname = i;
lastChange = "2016-10-18 00:36:02 +0000";
layers = (
{
layerId = "262880E7-CFE1-4BDA-902E-E24798F3240A";
paths = (
{
closed = 1;
nodes = (
"133 -1 LINE",
"133 500 LINE",
"111 500 LINE",
"111 -1 LINE"
);
},
{
closed = 1;
nodes = (
"139 669 OFFCURVE",
"153 683 OFFCURVE",
"153 700 CURVE SMOOTH",
"153 716 OFFCURVE",
"139 730 OFFCURVE",
"122 730 CURVE SMOOTH",
"105 730 OFFCURVE",
"91 716 OFFCURVE",
"91 700 CURVE SMOOTH",
"91 683 OFFCURVE",
"105 669 OFFCURVE",
"122 669 CURVE SMOOTH"
);
}
);
width = 244;
},
{
layerId = "4F25946F-63AC-42D6-8D55-01CF6A99025B";
paths = (
{
closed = 1;
nodes = (
"252 0 LINE",
"252 500 LINE",
"44 500 LINE",
"44 0 LINE"
);
},
{
closed = 1;
nodes = (
"209 547 OFFCURVE",
"262 591 OFFCURVE",
"262 656 CURVE",
"262 715 OFFCURVE",
"209 763 OFFCURVE",
"148 763 CURVE SMOOTH",
"87 763 OFFCURVE",
"34 715 OFFCURVE",
"34 656 CURVE SMOOTH",
"34 595 OFFCURVE",
"85 547 OFFCURVE",
"148 547 CURVE SMOOTH"
);
}
);
width = 296;
}
);
unicode = 0069;
},
{
color = 1;
glyphname = j;
lastChange = "2016-10-18 00:36:02 +0000";
layers = (
{
layerId = "262880E7-CFE1-4BDA-902E-E24798F3240A";
paths = (
{
closed = 1;
nodes = (
"81 -211 OFFCURVE",
"133 -159 OFFCURVE",
"133 -74 CURVE SMOOTH",
"133 500 LINE",
"111 500 LINE",
"111 -74 LINE SMOOTH",
"111 -146 OFFCURVE",
"68 -190 OFFCURVE",
"-3 -190 CURVE",
"-3 -211 LINE"
);
},
{
closed = 1;
nodes = (
"141 669 OFFCURVE",
"153 681 OFFCURVE",
"153 700 CURVE SMOOTH",
"153 719 OFFCURVE",
"141 730 OFFCURVE",
"122 730 CURVE SMOOTH",
"103 730 OFFCURVE",
"91 719 OFFCURVE",
"91 700 CURVE SMOOTH",
"91 681 OFFCURVE",
"103 669 OFFCURVE",
"122 669 CURVE SMOOTH"
);
}
);
width = 244;
},
{
layerId = "4F25946F-63AC-42D6-8D55-01CF6A99025B";
paths = (
{
closed = 1;
nodes = (
"140 -236 OFFCURVE",
"253 -200 OFFCURVE",
"252 -39 CURVE",
"252 500 LINE",
"44 500 LINE",
"44 -8 LINE",
"44 -40 OFFCURVE",
"-10 -39 OFFCURVE",
"-43 -26 CURVE",
"-53 -201 LINE"
);
},
{
closed = 1;
nodes = (
"210 547 OFFCURVE",
"262 595 OFFCURVE",
"262 656 CURVE",
"262 715 OFFCURVE",
"210 763 OFFCURVE",
"148 763 CURVE SMOOTH",
"87 763 OFFCURVE",
"34 715 OFFCURVE",
"34 656 CURVE SMOOTH",
"34 595 OFFCURVE",
"85 547 OFFCURVE",
"148 547 CURVE SMOOTH"
);
}
);
width = 296;
}
);
unicode = 006A;
},
{
color = 1;
glyphname = k;
lastChange = "2016-10-18 00:36:00 +0000";
layers = (
{
layerId = "262880E7-CFE1-4BDA-902E-E24798F3240A";
paths = (
{
closed = 1;
nodes = (
"391 0 LINE",
"145 250 LINE",
"393 500 LINE",
"362 500 LINE",
"113 250 LINE",
"360 0 LINE"
);
},
{
closed = 1;
nodes = (
"133 1 LINE",
"134 700 LINE",
"112 700 LINE",
"111 1 LINE"
);
}
);
width = 468;
},
{
layerId = "4F25946F-63AC-42D6-8D55-01CF6A99025B";
paths = (
{
closed = 1;
nodes = (
"554 0 LINE",
"372 250 LINE",
"564 500 LINE",
"332 500 LINE",
"188 256 LINE",
"318 0 LINE"
);
},
{
closed = 1;
nodes = (
"232 0 LINE",
"233 700 LINE",
"45 700 LINE",
"44 0 LINE"
);
}
);
width = 535;
},
{
associatedMasterId = "4F25946F-63AC-42D6-8D55-01CF6A99025B";
layerId = "67D1648E-BAA1-4D62-B90C-A94E0FCB7E5A";
name = "DemiBold{119,100}";
paths = (
{
closed = 1;
nodes = (
"500 0 LINE",
"298 250 LINE",
"515 500 LINE",
"365 500 LINE",
"157 250 LINE",
"349 0 LINE"
);
},
{
closed = 1;
nodes = (
"205 0 LINE",
"206 700 LINE",
"85 700 LINE",
"84 0 LINE"
);
}
);
width = 538;
}
);
unicode = 006B;
},
{
color = 1;
glyphname = l;
lastChange = "2016-10-18 00:36:01 +0000";
layers = (
{
layerId = "262880E7-CFE1-4BDA-902E-E24798F3240A";
paths = (
{
closed = 1;
nodes = (
"133 -1 LINE",
"133 700 LINE",
"111 700 LINE",
"111 -1 LINE"
);
}
);
width = 244;
},
{
layerId = "4F25946F-63AC-42D6-8D55-01CF6A99025B";
paths = (
{
closed = 1;
nodes = (
"252 0 LINE",
"252 700 LINE",
"44 700 LINE",
"44 0 LINE"
);
}
);
width = 296;
}
);
unicode = 006C;
},
{
color = 1;
glyphname = m;
lastChange = "2016-10-18 00:36:00 +0000";
layers = (
{
layerId = "262880E7-CFE1-4BDA-902E-E24798F3240A";
paths = (
{
closed = 1;
nodes = (
"133 0 LINE",
"133 500 LINE",
"111 500 LINE",
"111 0 LINE"
);
},
{
closed = 1;
nodes = (
"423 0 LINE",
"423 345 LINE",
"423 445 OFFCURVE",
"362 506 OFFCURVE",
"268 506 CURVE SMOOTH",
"173 506 OFFCURVE",
"118 445 OFFCURVE",
"118 345 CURVE",
"133 345 LINE",
"133 432 OFFCURVE",
"184 485 OFFCURVE",
"267 485 CURVE SMOOTH",
"350 485 OFFCURVE",
"401 432 OFFCURVE",
"401 345 CURVE",
"401 0 LINE"
);
},
{
closed = 1;
nodes = (
"713 0 LINE",
"713 345 LINE SMOOTH",
"713 445 OFFCURVE",
"652 506 OFFCURVE",
"558 506 CURVE SMOOTH",
"463 506 OFFCURVE",
"408 445 OFFCURVE",
"408 345 CURVE",
"423 345 LINE",
"423 432 OFFCURVE",
"474 485 OFFCURVE",
"557 485 CURVE SMOOTH",
"640 485 OFFCURVE",
"691 432 OFFCURVE",
"691 345 CURVE SMOOTH",
"691 0 LINE"
);
}
);
width = 819;
},
{
layerId = "4F25946F-63AC-42D6-8D55-01CF6A99025B";
paths = (
{
closed = 1;
nodes = (
"252 0 LINE",
"252 500 LINE",
"44 500 LINE",
"44 0 LINE"
);
},
{
closed = 1;
nodes = (
"546 0 LINE",
"546 350 LINE SMOOTH",
"546 441 OFFCURVE",
"501 502 OFFCURVE",
"384 502 CURVE",
"236 502 OFFCURVE",
"187 387 OFFCURVE",
"187 286 CURVE",
"252 294 LINE",
"252 321 OFFCURVE",
"269 339 OFFCURVE",
"295 339 CURVE SMOOTH",
"321 339 OFFCURVE",
"339 321 OFFCURVE",
"339 294 CURVE SMOOTH",
"339 0 LINE"
);
},
{
closed = 1;
nodes = (
"840 0 LINE",
"840 350 LINE SMOOTH",
"840 441 OFFCURVE",
"792 502 OFFCURVE",
"674 502 CURVE",
"530 502 OFFCURVE",
"481 387 OFFCURVE",
"481 286 CURVE",
"546 294 LINE",
"546 321 OFFCURVE",
"563 339 OFFCURVE",
"589 339 CURVE SMOOTH",
"615 339 OFFCURVE",
"633 321 OFFCURVE",
"633 294 CURVE SMOOTH",
"633 0 LINE"
);
}
);
width = 876;
},
{
associatedMasterId = "4F25946F-63AC-42D6-8D55-01CF6A99025B";
layerId = "F5ED04A7-6D5C-4CB3-8E75-4B337E8B4478";
name = "Medium {91, 100}";
paths = (
{
closed = 1;
nodes = (
"191 0 LINE",
"191 500 LINE",
"99 500 LINE",
"99 0 LINE"
);
},
{
closed = 1;
nodes = (
"475 0 LINE",
"475 350 LINE SMOOTH",
"475 447 OFFCURVE",
"423 510 OFFCURVE",
"322 510 CURVE SMOOTH",
"210 510 OFFCURVE",
"153 440 OFFCURVE",
"153 336 CURVE",
"191 336 LINE",
"191 396 OFFCURVE",
"228 433 OFFCURVE",
"287 433 CURVE SMOOTH",
"346 433 OFFCURVE",
"383 396 OFFCURVE",
"383 336 CURVE SMOOTH",
"383 0 LINE"
);
},
{
closed = 1;
nodes = (
"759 0 LINE",
"759 350 LINE SMOOTH",
"759 447 OFFCURVE",
"707 510 OFFCURVE",
"606 510 CURVE SMOOTH",
"494 510 OFFCURVE",
"437 440 OFFCURVE",
"437 336 CURVE",
"475 336 LINE",
"475 396 OFFCURVE",
"512 433 OFFCURVE",
"571 433 CURVE SMOOTH",
"630 433 OFFCURVE",
"667 396 OFFCURVE",
"667 336 CURVE SMOOTH",
"667 0 LINE"
);
}
);
width = 850;
}
);
unicode = 006D;
},
{
color = 1;
glyphname = n;
lastChange = "2016-10-18 00:36:00 +0000";
layers = (
{
layerId = "262880E7-CFE1-4BDA-902E-E24798F3240A";
paths = (
{
closed = 1;
nodes = (
"433 0 LINE",
"433 344 LINE SMOOTH",
"433 444 OFFCURVE",
"372 504 OFFCURVE",
"273 504 CURVE SMOOTH",
"177 504 OFFCURVE",
"118 443 OFFCURVE",
"118 343 CURVE",
"133 343 LINE",
"133 430 OFFCURVE",
"186 483 OFFCURVE",
"272 483 CURVE SMOOTH",
"358 483 OFFCURVE",
"411 430 OFFCURVE",
"411 343 CURVE SMOOTH",
"411 0 LINE"
);
},
{
closed = 1;
nodes = (
"133 0 LINE",
"133 496 LINE",
"111 496 LINE",
"111 0 LINE"
);
}
);
width = 538;
},
{
layerId = "4F25946F-63AC-42D6-8D55-01CF6A99025B";
paths = (
{
closed = 1;
nodes = (
"546 0 LINE",
"546 350 LINE SMOOTH",
"546 441 OFFCURVE",
"501 502 OFFCURVE",
"384 502 CURVE",
"236 502 OFFCURVE",
"187 387 OFFCURVE",
"187 286 CURVE",
"252 294 LINE",
"252 321 OFFCURVE",
"269 339 OFFCURVE",
"295 339 CURVE SMOOTH",
"321 339 OFFCURVE",
"339 321 OFFCURVE",
"339 294 CURVE SMOOTH",
"339 0 LINE"
);
},
{
closed = 1;
nodes = (
"252 0 LINE",
"252 500 LINE",
"44 500 LINE",
"44 0 LINE"
);
}
);
width = 582;
},
{
associatedMasterId = "4F25946F-63AC-42D6-8D55-01CF6A99025B";
layerId = "48EED9EC-BBC9-457D-A249-2E4341C899C3";
name = "Medium {91, 100}";
paths = (
{
closed = 1;
nodes = (
"490 0 LINE",
"490 346 LINE SMOOTH",
"490 443 OFFCURVE",
"429 506 OFFCURVE",
"325 506 CURVE SMOOTH",
"207 506 OFFCURVE",
"139 425 OFFCURVE",
"139 325 CURVE",
"192 325 LINE",
"192 389 OFFCURVE",
"231 429 OFFCURVE",
"294 429 CURVE SMOOTH",
"358 429 OFFCURVE",
"397 389 OFFCURVE",
"397 325 CURVE SMOOTH",
"397 0 LINE"
);
},
{
closed = 1;
nodes = (
"192 0 LINE",
"192 498 LINE",
"99 498 LINE",
"99 0 LINE"
);
}
);
width = 582;
}
);
unicode = 006E;
},
{
color = 1;
glyphname = o;
lastChange = "2016-10-18 00:36:00 +0000";
layers = (
{
layerId = "262880E7-CFE1-4BDA-902E-E24798F3240A";
paths = (
{
closed = 1;
nodes = (
"360 -5 OFFCURVE",
"421 56 OFFCURVE",
"421 156 CURVE SMOOTH",
"421 344 LINE SMOOTH",
"421 444 OFFCURVE",
"360 505 OFFCURVE",
"260 505 CURVE SMOOTH",
"160 505 OFFCURVE",
"99 444 OFFCURVE",
"99 344 CURVE SMOOTH",
"99 156 LINE SMOOTH",
"99 56 OFFCURVE",
"160 -5 OFFCURVE",
"260 -5 CURVE SMOOTH"
);
},
{
closed = 1;
nodes = (
"174 17 OFFCURVE",
"121 70 OFFCURVE",
"121 156 CURVE SMOOTH",
"121 344 LINE SMOOTH",
"121 431 OFFCURVE",
"174 484 OFFCURVE",
"260 484 CURVE SMOOTH",
"346 484 OFFCURVE",
"399 431 OFFCURVE",
"399 344 CURVE SMOOTH",
"399 156 LINE SMOOTH",
"399 70 OFFCURVE",
"346 17 OFFCURVE",
"260 17 CURVE SMOOTH"
);
}
);
width = 520;
},
{
layerId = "4F25946F-63AC-42D6-8D55-01CF6A99025B";
paths = (
{
closed = 1;
nodes = (
"422 -4 OFFCURVE",
"517 86 OFFCURVE",
"517 247 CURVE",
"517 256 LINE",
"515 415 OFFCURVE",
"420 504 OFFCURVE",
"261 504 CURVE",
"101 504 OFFCURVE",
"7 415 OFFCURVE",
"7 256 CURVE",
"7 247 LINE",
"8 86 OFFCURVE",
"102 -4 OFFCURVE",
"261 -4 CURVE SMOOTH"
);
},
{
closed = 1;
nodes = (
"235 163 OFFCURVE",
"218 179 OFFCURVE",
"218 204 CURVE SMOOTH",
"218 296 LINE SMOOTH",
"218 321 OFFCURVE",
"235 337 OFFCURVE",
"261 337 CURVE SMOOTH",
"287 337 OFFCURVE",
"305 321 OFFCURVE",
"305 296 CURVE SMOOTH",
"305 204 LINE SMOOTH",
"305 179 OFFCURVE",
"287 163 OFFCURVE",
"261 163 CURVE SMOOTH"
);
}
);
width = 523;
},
{
associatedMasterId = "4F25946F-63AC-42D6-8D55-01CF6A99025B";
layerId = "2DFAB8E9-CF9C-42C7-AA48-DE050B873B35";
name = "Demibold{119,100}";
paths = (
{
closed = 1;
nodes = (
"395 -7 OFFCURVE",
"474 70 OFFCURVE",
"474 195 CURVE SMOOTH",
"474 307 LINE SMOOTH",
"474 431 OFFCURVE",
"395 507 OFFCURVE",
"267 507 CURVE SMOOTH",
"139 507 OFFCURVE",
"61 431 OFFCURVE",
"61 307 CURVE SMOOTH",
"61 195 LINE SMOOTH",
"61 70 OFFCURVE",
"139 -7 OFFCURVE",
"267 -7 CURVE SMOOTH"
);
},
{
closed = 1;
nodes = (
"214 110 OFFCURVE",
"179 145 OFFCURVE",
"179 197 CURVE SMOOTH",
"179 305 LINE SMOOTH",
"179 357 OFFCURVE",
"214 392 OFFCURVE",
"267 392 CURVE SMOOTH",
"320 392 OFFCURVE",
"355 357 OFFCURVE",
"355 305 CURVE SMOOTH",
"355 197 LINE SMOOTH",
"355 145 OFFCURVE",
"320 110 OFFCURVE",
"267 110 CURVE SMOOTH"
);
}
);
width = 535;
}
);
unicode = 006F;
},
{
color = 1;
glyphname = p;
lastChange = "2016-10-18 00:36:00 +0000";
layers = (
{
layerId = "262880E7-CFE1-4BDA-902E-E24798F3240A";
paths = (
{
closed = 1;
nodes = (
"373 -7 OFFCURVE",
"433 54 OFFCURVE",
"433 154 CURVE SMOOTH",
"433 346 LINE SMOOTH",
"433 446 OFFCURVE",
"373 507 OFFCURVE",
"275 507 CURVE SMOOTH",
"177 507 OFFCURVE",
"113 444 OFFCURVE",
"113 344 CURVE SMOOTH",
"113 156 LINE SMOOTH",
"113 56 OFFCURVE",
"177 -7 OFFCURVE",
"275 -7 CURVE SMOOTH"
);
},
{
closed = 1;
nodes = (
"133 -200 LINE",
"133 500 LINE",
"111 500 LINE",
"111 -200 LINE"
);
},
{
closed = 1;
nodes = (
"186 14 OFFCURVE",
"133 67 OFFCURVE",
"133 154 CURVE SMOOTH",
"133 346 LINE SMOOTH",
"133 432 OFFCURVE",
"186 485 OFFCURVE",
"272 485 CURVE SMOOTH",
"358 485 OFFCURVE",
"411 432 OFFCURVE",
"411 346 CURVE SMOOTH",
"411 154 LINE SMOOTH",
"411 67 OFFCURVE",
"358 14 OFFCURVE",
"272 14 CURVE SMOOTH"
);
}
);
width = 533;
},
{
layerId = "4F25946F-63AC-42D6-8D55-01CF6A99025B";
paths = (
{
closed = 1;
nodes = (
"482 -4 OFFCURVE",
"546 52 OFFCURVE",
"546 157 CURVE SMOOTH",
"546 347 LINE SMOOTH",
"546 441 OFFCURVE",
"471 504 OFFCURVE",
"358 504 CURVE",
"163 504 OFFCURVE",
"147 242 OFFCURVE",
"147 231 CURVE SMOOTH",
"147 217 LINE SMOOTH",
"147 117 OFFCURVE",
"238 -12 OFFCURVE",
"386 -7 CURVE SMOOTH"
);
},
{
closed = 1;
nodes = (
"252 -200 LINE",
"252 502 LINE",
"44 502 LINE",
"44 -200 LINE"
);
},
{
closed = 1;
nodes = (
"269 158 OFFCURVE",
"252 174 OFFCURVE",
"252 199 CURVE SMOOTH",
"252 291 LINE SMOOTH",
"252 316 OFFCURVE",
"269 332 OFFCURVE",
"295 332 CURVE SMOOTH",
"321 332 OFFCURVE",
"339 316 OFFCURVE",
"339 291 CURVE SMOOTH",
"339 199 LINE SMOOTH",
"339 174 OFFCURVE",
"321 158 OFFCURVE",
"295 158 CURVE SMOOTH"
);
}
);
width = 570;
}
);
unicode = 0070;
},
{
color = 1;
glyphname = r;
lastChange = "2016-10-18 00:36:01 +0000";
layers = (
{
layerId = "262880E7-CFE1-4BDA-902E-E24798F3240A";
paths = (
{
closed = 1;
nodes = (
"133 331 LINE",
"133 418 OFFCURVE",
"183 483 OFFCURVE",
"265 483 CURVE SMOOTH",
"275 483 OFFCURVE",
"292 479 OFFCURVE",
"301 475 CURVE",
"318 488 LINE",
"304 496 OFFCURVE",
"284 502 OFFCURVE",
"265 502 CURVE SMOOTH",
"170 502 OFFCURVE",
"117 429 OFFCURVE",
"117 331 CURVE"
);
},
{
closed = 1;
nodes = (
"133 -1 LINE",
"133 500 LINE",
"111 500 LINE",
"111 -1 LINE"
);
}
);
width = 392;
},
{
layerId = "4F25946F-63AC-42D6-8D55-01CF6A99025B";
paths = (
{
closed = 1;
nodes = (
"252 268 LINE",
"252 302 OFFCURVE",
"291 317 OFFCURVE",
"328 317 CURVE SMOOTH",
"346 317 OFFCURVE",
"381 310 OFFCURVE",
"386 301 CURVE",
"428 464 LINE",
"424 486 OFFCURVE",
"400 505 OFFCURVE",
"357 505 CURVE SMOOTH",
"242 505 OFFCURVE",
"188 382 OFFCURVE",
"188 268 CURVE"
);
},
{
closed = 1;
nodes = (
"252 0 LINE",
"252 500 LINE",
"44 500 LINE",
"44 0 LINE"
);
}
);
width = 408;
},
{
associatedMasterId = "262880E7-CFE1-4BDA-902E-E24798F3240A";
layerId = "42CC11FC-6CFD-42F7-A362-E84ACC39CCA1";
name = "Medium{91,100}";
paths = (
{
closed = 1;
nodes = (
"191 307 LINE",
"191 374 OFFCURVE",
"237 420 OFFCURVE",
"302 420 CURVE SMOOTH",
"315 420 OFFCURVE",
"339 415 OFFCURVE",
"346 409 CURVE",
"373 479 LINE",
"363 492 OFFCURVE",
"341 503 OFFCURVE",
"313 503 CURVE SMOOTH",
"210 503 OFFCURVE",
"137 411 OFFCURVE",
"137 307 CURVE"
);
},
{
closed = 1;
nodes = (
"191 -1 LINE",
"191 500 LINE",
"99 500 LINE",
"99 -1 LINE"
);
}
);
width = 405;
}
);
unicode = 0072;
},
{
color = 1;
glyphname = s;
lastChange = "2016-10-18 00:36:00 +0000";
layers = (
{
layerId = "262880E7-CFE1-4BDA-902E-E24798F3240A";
paths = (
{
closed = 1;
nodes = (
"346 -3 OFFCURVE",
"413 47 OFFCURVE",
"413 126 CURVE SMOOTH",
"413 214 OFFCURVE",
"329 237 OFFCURVE",
"249 265 CURVE SMOOTH",
"160 296 OFFCURVE",
"111 311 OFFCURVE",
"111 372 CURVE SMOOTH",
"111 437 OFFCURVE",
"167 484 OFFCURVE",
"250 484 CURVE SMOOTH",
"333 484 OFFCURVE",
"389 438 OFFCURVE",
"389 369 CURVE SMOOTH",
"389 368 LINE",
"411 368 LINE",
"411 369 LINE SMOOTH",
"411 451 OFFCURVE",
"347 503 OFFCURVE",
"250 503 CURVE SMOOTH",
"153 503 OFFCURVE",
"89 450 OFFCURVE",
"89 372 CURVE SMOOTH",
"89 290 OFFCURVE",
"160 271 OFFCURVE",
"245 241 CURVE SMOOTH",
"321 214 OFFCURVE",
"391 196 OFFCURVE",
"391 126 CURVE SMOOTH",
"391 61 OFFCURVE",
"332 17 OFFCURVE",
"248 17 CURVE SMOOTH",
"164 17 OFFCURVE",
"109 60 OFFCURVE",
"109 126 CURVE SMOOTH",
"109 127 LINE",
"87 127 LINE",
"87 126 LINE SMOOTH",
"87 48 OFFCURVE",
"150 -3 OFFCURVE",
"248 -3 CURVE SMOOTH"
);
}
);
width = 500;
},
{
layerId = "4F25946F-63AC-42D6-8D55-01CF6A99025B";
paths = (
{
closed = 1;
nodes = (
"399 -10 OFFCURVE",
"484 62 OFFCURVE",
"484 151 CURVE SMOOTH",
"484 216 OFFCURVE",
"439 270 OFFCURVE",
"348 296 CURVE SMOOTH",
"288 313 OFFCURVE",
"212 318 OFFCURVE",
"212 351 CURVE SMOOTH",
"212 364 OFFCURVE",
"225 378 OFFCURVE",
"245 378 CURVE SMOOTH",
"265 378 OFFCURVE",
"281 364 OFFCURVE",
"281 341 CURVE",
"282 331 LINE",
"476 331 LINE",
"476 341 LINE",
"472 439 OFFCURVE",
"387 510 OFFCURVE",
"241 510 CURVE SMOOTH",
"93 510 OFFCURVE",
"9 437 OFFCURVE",
"9 353 CURVE SMOOTH",
"9 292 OFFCURVE",
"53 235 OFFCURVE",
"147 208 CURVE SMOOTH",
"203 192 OFFCURVE",
"275 187 OFFCURVE",
"275 149 CURVE SMOOTH",
"275 136 OFFCURVE",
"267 123 OFFCURVE",
"245 123 CURVE SMOOTH",
"226 123 OFFCURVE",
"211 133 OFFCURVE",
"207 155 CURVE SMOOTH",
"204 172 LINE",
"8 172 LINE",
"8 162 LINE",
"8 66 OFFCURVE",
"99 -10 OFFCURVE",
"251 -10 CURVE SMOOTH"
);
}
);
width = 489;
},
{
associatedMasterId = "262880E7-CFE1-4BDA-902E-E24798F3240A";
layerId = "677A5083-0B4E-4805-9AE1-F115960A3564";
name = "Semi Bold{101, 100}";
paths = (
{
closed = 1;
nodes = (
"365 -10 OFFCURVE",
"436 51 OFFCURVE",
"436 137 CURVE SMOOTH",
"436 213 OFFCURVE",
"381 258 OFFCURVE",
"297 286 CURVE SMOOTH",
"238 306 OFFCURVE",
"170 313 OFFCURVE",
"170 363 CURVE SMOOTH",
"170 395 OFFCURVE",
"199 424 OFFCURVE",
"246 424 CURVE SMOOTH",
"291 424 OFFCURVE",
"323 399 OFFCURVE",
"324 358 CURVE SMOOTH",
"324 352 LINE",
"431 352 LINE",
"431 358 LINE SMOOTH",
"431 446 OFFCURVE",
"360 510 OFFCURVE",
"245 510 CURVE SMOOTH",
"130 510 OFFCURVE",
"61 447 OFFCURVE",
"61 363 CURVE SMOOTH",
"61 291 OFFCURVE",
"113 248 OFFCURVE",
"197 219 CURVE SMOOTH",
"255 199 OFFCURVE",
"323 189 OFFCURVE",
"323 137 CURVE SMOOTH",
"323 100 OFFCURVE",
"290 75 OFFCURVE",
"245 75 CURVE SMOOTH",
"199 75 OFFCURVE",
"169 100 OFFCURVE",
"169 137 CURVE SMOOTH",
"169 146 LINE",
"59 146 LINE",
"59 141 LINE SMOOTH",
"59 54 OFFCURVE",
"132 -10 OFFCURVE",
"250 -10 CURVE SMOOTH"
);
}
);
width = 494;
}
);
unicode = 0073;
},
{
color = 1;
glyphname = t;
lastChange = "2016-10-18 00:36:02 +0000";
layers = (
{
layerId = "262880E7-CFE1-4BDA-902E-E24798F3240A";
paths = (
{
closed = 1;
nodes = (
"288 2 LINE",
"288 24 LINE",
"264 24 LINE SMOOTH",
"183 24 OFFCURVE",
"160 59 OFFCURVE",
"160 155 CURVE SMOOTH",
"160 479 LINE",
"274 479 LINE",
"274 500 LINE",
"160 500 LINE",
"160 610 LINE",
"138 610 LINE",
"138 500 LINE",
"74 500 LINE",
"74 479 LINE",
"138 479 LINE",
"138 155 LINE SMOOTH",
"138 45 OFFCURVE",
"170 2 OFFCURVE",
"264 2 CURVE SMOOTH"
);
}
);
width = 364;
},
{
layerId = "4F25946F-63AC-42D6-8D55-01CF6A99025B";
paths = (
{
closed = 1;
nodes = (
"306 1 LINE",
"312 181 LINE",
"309 181 LINE",
"271 177 OFFCURVE",
"249 172 OFFCURVE",
"249 203 CURVE SMOOTH",
"249 326 LINE",
"329 326 LINE",
"329 500 LINE",
"249 500 LINE",
"249 700 LINE",
"55 700 LINE",
"55 500 LINE",
"11 500 LINE",
"11 326 LINE",
"55 326 LINE",
"55 163 LINE SMOOTH",
"55 3 OFFCURVE",
"118 -24 OFFCURVE",
"300 1 CURVE"
);
}
);
width = 349;
}
);
unicode = 0074;
},
{
color = 1;
glyphname = u;
lastChange = "2016-10-18 00:36:01 +0000";
layers = (
{
layerId = "262880E7-CFE1-4BDA-902E-E24798F3240A";
paths = (
{
closed = 1;
nodes = (
"364 -3 OFFCURVE",
"423 58 OFFCURVE",
"423 157 CURVE",
"406 157 LINE",
"406 70 OFFCURVE",
"353 17 OFFCURVE",
"267 17 CURVE SMOOTH",
"181 17 OFFCURVE",
"128 70 OFFCURVE",
"128 157 CURVE SMOOTH",
"128 500 LINE",
"106 500 LINE",
"106 156 LINE SMOOTH",
"106 57 OFFCURVE",
"167 -3 OFFCURVE",
"267 -3 CURVE SMOOTH"
);
},
{
closed = 1;
nodes = (
"428 0 LINE",
"428 500 LINE",
"406 500 LINE",
"406 0 LINE"
);
}
);
width = 539;
},
{
layerId = "4F25946F-63AC-42D6-8D55-01CF6A99025B";
paths = (
{
closed = 1;
nodes = (
"350 -2 OFFCURVE",
"397 96 OFFCURVE",
"397 196 CURVE",
"332 188 LINE",
"332 165 OFFCURVE",
"314 150 OFFCURVE",
"288 150 CURVE SMOOTH",
"262 150 OFFCURVE",
"245 165 OFFCURVE",
"245 188 CURVE SMOOTH",
"245 500 LINE",
"37 500 LINE",
"37 150 LINE SMOOTH",
"37 49 OFFCURVE",
"86 -2 OFFCURVE",
"197 -2 CURVE SMOOTH"
);
},
{
closed = 1;
nodes = (
"539 0 LINE",
"539 500 LINE",
"332 500 LINE",
"332 0 LINE"
);
}
);
width = 583;
},
{
associatedMasterId = "4F25946F-63AC-42D6-8D55-01CF6A99025B";
layerId = "47FA07B0-C6A0-4AEE-ADEB-F55ADBF433D4";
name = "Medium{91,100}";
paths = (
{
closed = 1;
nodes = (
"372 -6 OFFCURVE",
"436 64 OFFCURVE",
"436 168 CURVE",
"390 168 LINE",
"390 107 OFFCURVE",
"349 67 OFFCURVE",
"287 67 CURVE SMOOTH",
"226 67 OFFCURVE",
"185 107 OFFCURVE",
"185 168 CURVE SMOOTH",
"185 500 LINE",
"92 500 LINE",
"92 154 LINE SMOOTH",
"92 58 OFFCURVE",
"166 -6 OFFCURVE",
"277 -6 CURVE SMOOTH"
);
},
{
closed = 1;
nodes = (
"483 0 LINE",
"483 500 LINE",
"390 500 LINE",
"390 0 LINE"
);
}
);
width = 582;
}
);
unicode = 0075;
},
{
color = 1;
glyphname = v;
lastChange = "2016-10-18 00:36:01 +0000";
layers = (
{
layerId = "262880E7-CFE1-4BDA-902E-E24798F3240A";
paths = (
{
closed = 1;
nodes = (
"264 3 LINE",
"429 500 LINE",
"407 500 LINE",
"253 38 LINE",
"99 500 LINE",
"77 500 LINE",
"242 3 LINE"
);
}
);
width = 506;
},
{
layerId = "4F25946F-63AC-42D6-8D55-01CF6A99025B";
paths = (
{
closed = 1;
nodes = (
"333 0 LINE",
"497 500 LINE",
"286 500 LINE",
"237 257 LINE",
"188 500 LINE",
"-23 500 LINE",
"141 0 LINE"
);
}
);
width = 474;
},
{
associatedMasterId = "262880E7-CFE1-4BDA-902E-E24798F3240A";
layerId = "30C42329-3409-4879-A8EC-0B65B1A31C66";
name = "Medium { 91, 100}";
paths = (
{
closed = 1;
nodes = (
"285 0 LINE",
"442 500 LINE",
"349 500 LINE",
"241 129 LINE",
"133 500 LINE",
"41 500 LINE",
"198 0 LINE"
);
}
);
width = 483;
}
);
unicode = 0076;
},
{
color = 1;
glyphname = w;
lastChange = "2016-10-18 00:36:00 +0000";
layers = (
{
layerId = "262880E7-CFE1-4BDA-902E-E24798F3240A";
paths = (
{
closed = 1;
nodes = (
"235 0 LINE",
"359 458 LINE",
"483 0 LINE",
"505 0 LINE",
"640 500 LINE",
"618 500 LINE",
"494 42 LINE",
"370 500 LINE",
"348 500 LINE",
"224 42 LINE",
"100 500 LINE",
"78 500 LINE",
"213 0 LINE"
);
}
);
width = 718;
},
{
layerId = "4F25946F-63AC-42D6-8D55-01CF6A99025B";
paths = (
{
closed = 1;
nodes = (
"298 0 LINE",
"331 240 LINE",
"368 0 LINE",
"558 0 LINE",
"678 500 LINE",
"484 500 LINE",
"451 287 LINE",
"415 500 LINE",
"245 500 LINE",
"210 287 LINE",
"175 500 LINE",
"-12 500 LINE",
"107 0 LINE"
);
}
);
width = 665;
}
);
unicode = 0077;
},
{
color = 1;
glyphname = x;
lastChange = "2016-10-18 00:36:01 +0000";
layers = (
{
layerId = "262880E7-CFE1-4BDA-902E-E24798F3240A";
paths = (
{
closed = 1;
nodes = (
"406 501 LINE",
"252 267 LINE",
"98 501 LINE",
"76 501 LINE",
"241 250 LINE",
"76 -1 LINE",
"98 -1 LINE",
"252 233 LINE",
"406 -1 LINE",
"428 -1 LINE",
"263 250 LINE",
"428 501 LINE"
);
}
);
width = 504;
},
{
layerId = "4F25946F-63AC-42D6-8D55-01CF6A99025B";
paths = (
{
closed = 1;
nodes = (
"290 500 LINE",
"245 411 LINE",
"201 500 LINE",
"-21 500 LINE",
"137 250 LINE",
"-21 0 LINE",
"201 0 LINE",
"245 89 LINE",
"290 0 LINE",
"511 0 LINE",
"354 250 LINE",
"511 500 LINE"
);
}
);
width = 490;
},
{
associatedMasterId = "262880E7-CFE1-4BDA-902E-E24798F3240A";
layerId = "A7F0FF68-370D-4ABA-A088-97B4F33DE289";
name = "Light Oct 15 16, 02:53";
paths = (
{
closed = 1;
nodes = (
"368 501 LINE",
"390 501 LINE",
"60 -1 LINE",
"38 -1 LINE"
);
},
{
closed = 1;
nodes = (
"38 501 LINE",
"60 501 LINE",
"390 -1 LINE",
"368 -1 LINE"
);
}
);
width = 428;
},
{
associatedMasterId = "4F25946F-63AC-42D6-8D55-01CF6A99025B";
layerId = "C8E6816F-D14D-432C-92C0-4654658DD355";
name = "Bold Oct 15 16, 02:53";
paths = (
{
closed = 1;
nodes = (
"306 500 LINE",
"527 500 LINE",
"217 0 LINE",
"-5 0 LINE"
);
},
{
closed = 1;
nodes = (
"-5 500 LINE",
"217 500 LINE",
"527 0 LINE",
"306 0 LINE"
);
}
);
width = 522;
}
);
unicode = 0078;
},
{
color = 1;
glyphname = y;
lastChange = "2016-10-18 00:36:01 +0000";
layers = (
{
layerId = "262880E7-CFE1-4BDA-902E-E24798F3240A";
paths = (
{
closed = 1;
nodes = (
"253 33 LINE",
"98 500 LINE",
"76 500 LINE",
"242 -1 LINE",
"220 -67 LINE SMOOTH",
"186 -169 OFFCURVE",
"163 -190 OFFCURVE",
"100 -190 CURVE",
"100 -211 LINE",
"175 -211 OFFCURVE",
"207 -184 OFFCURVE",
"240 -73 CURVE SMOOTH",
"430 500 LINE",
"408 500 LINE"
);
}
);
width = 506;
},
{
layerId = "4F25946F-63AC-42D6-8D55-01CF6A99025B";
paths = (
{
closed = 1;
nodes = (
"227 321 LINE",
"181 500 LINE",
"-27 500 LINE",
"136 106 LINE",
"128 82 LINE SMOOTH",
"115 42 OFFCURVE",
"100 30 OFFCURVE",
"42 30 CURVE",
"42 -128 LINE",
"208 -128 OFFCURVE",
"266 -72 OFFCURVE",
"306 35 CURVE SMOOTH",
"481 500 LINE",
"273 500 LINE"
);
}
);
width = 454;
}
);
unicode = 0079;
},
{
color = 1;
glyphname = z;
lastChange = "2016-10-18 00:36:01 +0000";
layers = (
{
layerId = "262880E7-CFE1-4BDA-902E-E24798F3240A";
paths = (
{
closed = 1;
nodes = (
"395 1 LINE",
"395 23 LINE",
"102 23 LINE",
"406 478 LINE",
"406 499 LINE",
"83 499 LINE",
"83 478 LINE",
"382 478 LINE",
"78 23 LINE",
"78 1 LINE"
);
}
);
width = 484;
},
{
layerId = "4F25946F-63AC-42D6-8D55-01CF6A99025B";
paths = (
{
closed = 1;
nodes = (
"440 10 LINE",
"440 157 LINE",
"265 157 LINE",
"444 348 LINE",
"444 496 LINE",
"23 496 LINE",
"23 348 LINE",
"211 347 LINE",
"24 157 LINE",
"23 10 LINE"
);
}
);
width = 466;
},
{
associatedMasterId = "4F25946F-63AC-42D6-8D55-01CF6A99025B";
layerId = "516F1C78-99C1-4D19-A6A1-804BC5CB958E";
name = "Demibold {119,100}";
paths = (
{
closed = 1;
nodes = (
"416 6 LINE",
"416 113 LINE",
"210 113 LINE",
"418 386 LINE",
"418 497 LINE",
"59 497 LINE",
"59 386 LINE",
"282 386 LINE",
"69 113 LINE",
"69 6 LINE"
);
}
);
width = 470;
}
);
unicode = 007A;
},
{
color = 1;
glyphname = zero;
lastChange = "2016-10-18 00:36:00 +0000";
layers = (
{
layerId = "262880E7-CFE1-4BDA-902E-E24798F3240A";
paths = (
{
closed = 1;
nodes = (
"391 -9 OFFCURVE",
"446 45 OFFCURVE",
"446 150 CURVE SMOOTH",
"446 550 LINE SMOOTH",
"446 655 OFFCURVE",
"391 709 OFFCURVE",
"286 709 CURVE SMOOTH",
"181 709 OFFCURVE",
"126 655 OFFCURVE",
"126 550 CURVE SMOOTH",
"126 150 LINE SMOOTH",
"126 45 OFFCURVE",
"181 -9 OFFCURVE",
"286 -9 CURVE SMOOTH"
);
},
{
closed = 1;
nodes = (
"195 11 OFFCURVE",
"148 58 OFFCURVE",
"148 150 CURVE SMOOTH",
"148 550 LINE SMOOTH",
"148 642 OFFCURVE",
"195 690 OFFCURVE",
"286 690 CURVE SMOOTH",
"377 690 OFFCURVE",
"424 642 OFFCURVE",
"424 550 CURVE SMOOTH",
"424 150 LINE SMOOTH",
"424 58 OFFCURVE",
"377 11 OFFCURVE",
"286 11 CURVE SMOOTH"
);
}
);
width = 572;
},
{
layerId = "4F25946F-63AC-42D6-8D55-01CF6A99025B";
paths = (
{
closed = 1;
nodes = (
"460 -10 OFFCURVE",
"548 73 OFFCURVE",
"548 233 CURVE SMOOTH",
"548 467 LINE SMOOTH",
"548 627 OFFCURVE",
"460 710 OFFCURVE",
"288 710 CURVE SMOOTH",
"116 710 OFFCURVE",
"28 627 OFFCURVE",
"28 467 CURVE SMOOTH",
"28 233 LINE SMOOTH",
"28 73 OFFCURVE",
"116 -10 OFFCURVE",
"288 -10 CURVE SMOOTH"
);
},
{
closed = 1;
nodes = (
"259 174 OFFCURVE",
"240 194 OFFCURVE",
"240 223 CURVE SMOOTH",
"240 477 LINE SMOOTH",
"240 506 OFFCURVE",
"259 526 OFFCURVE",
"288 526 CURVE SMOOTH",
"317 526 OFFCURVE",
"336 506 OFFCURVE",
"336 477 CURVE SMOOTH",
"336 223 LINE SMOOTH",
"336 194 OFFCURVE",
"317 174 OFFCURVE",
"288 174 CURVE SMOOTH"
);
}
);
width = 576;
}
);
unicode = 0030;
},
{
color = 1;
glyphname = one;
lastChange = "2016-10-18 00:36:01 +0000";
layers = (
{
layerId = "4F25946F-63AC-42D6-8D55-01CF6A99025B";
paths = (
{
closed = 1;
nodes = (
"284 0 LINE",
"284 700 LINE",
"72 700 LINE",
"72 0 LINE"
);
},
{
closed = 1;
nodes = (
"9 512 LINE",
"72 512 LINE",
"72 700 LINE",
"9 674 LINE"
);
}
);
width = 337;
},
{
layerId = "262880E7-CFE1-4BDA-902E-E24798F3240A";
paths = (
{
closed = 1;
nodes = (
"159 0 LINE",
"159 700 LINE",
"137 700 LINE",
"137 0 LINE"
);
},
{
closed = 1;
nodes = (
"96 646 LINE",
"137 662 LINE",
"137 700 LINE",
"96 668 LINE"
);
}
);
width = 293;
}
);
unicode = 0031;
},
{
color = 1;
glyphname = two;
lastChange = "2016-10-18 00:36:01 +0000";
layers = (
{
layerId = "4F25946F-63AC-42D6-8D55-01CF6A99025B";
paths = (
{
closed = 1;
nodes = (
"514 0 LINE",
"514 188 LINE",
"267 188 LINE",
"498 447 LINE",
"515 475 OFFCURVE",
"526 500 OFFCURVE",
"526 534 CURVE SMOOTH",
"526 633 OFFCURVE",
"431 700 OFFCURVE",
"274 700 CURVE SMOOTH",
"115 700 OFFCURVE",
"14 631 OFFCURVE",
"14 519 CURVE",
"14 454 LINE",
"222 455 LINE",
"222 481 LINE",
"222 506 OFFCURVE",
"239 523 OFFCURVE",
"264 523 CURVE SMOOTH",
"292 523 OFFCURVE",
"304 502 OFFCURVE",
"304 489 CURVE SMOOTH",
"304 474 OFFCURVE",
"290 455 OFFCURVE",
"265 426 CURVE",
"17 171 LINE",
"17 0 LINE"
);
}
);
width = 536;
},
{
layerId = "262880E7-CFE1-4BDA-902E-E24798F3240A";
paths = (
{
closed = 1;
nodes = (
"436 0 LINE",
"436 22 LINE",
"133 22 LINE",
"373 364 LINE SMOOTH",
"411 419 OFFCURVE",
"435 470 OFFCURVE",
"435 530 CURVE SMOOTH",
"435 615 OFFCURVE",
"386 710 OFFCURVE",
"272 710 CURVE SMOOTH",
"167 710 OFFCURVE",
"104 635 OFFCURVE",
"104 500 CURVE",
"104 479 LINE",
"125 479 LINE",
"125 500 LINE SMOOTH",
"125 618 OFFCURVE",
"180 690 OFFCURVE",
"271 690 CURVE SMOOTH",
"359 690 OFFCURVE",
"414 622 OFFCURVE",
"414 530 CURVE SMOOTH",
"414 478 OFFCURVE",
"396 434 OFFCURVE",
"368 395 CURVE SMOOTH",
"105 21 LINE",
"104 0 LINE"
);
}
);
width = 541;
}
);
unicode = 0032;
},
{
color = 1;
glyphname = eight;
lastChange = "2016-10-18 00:36:01 +0000";
layers = (
{
layerId = "262880E7-CFE1-4BDA-902E-E24798F3240A";
paths = (
{
closed = 1;
nodes = (
"384 364 OFFCURVE",
"439 418 OFFCURVE",
"439 523 CURVE SMOOTH",
"439 548 LINE SMOOTH",
"439 653 OFFCURVE",
"384 707 OFFCURVE",
"279 707 CURVE SMOOTH",
"174 707 OFFCURVE",
"119 653 OFFCURVE",
"119 548 CURVE SMOOTH",
"119 523 LINE SMOOTH",
"119 418 OFFCURVE",
"174 364 OFFCURVE",
"279 364 CURVE SMOOTH"
);
},
{
closed = 1;
nodes = (
"188 384 OFFCURVE",
"141 431 OFFCURVE",
"141 523 CURVE SMOOTH",
"141 548 LINE SMOOTH",
"141 640 OFFCURVE",
"188 688 OFFCURVE",
"279 688 CURVE SMOOTH",
"370 688 OFFCURVE",
"417 640 OFFCURVE",
"417 548 CURVE SMOOTH",
"417 523 LINE SMOOTH",
"417 431 OFFCURVE",
"370 384 OFFCURVE",
"279 384 CURVE SMOOTH"
);
},
{
closed = 1;
nodes = (
"384 -18 OFFCURVE",
"439 36 OFFCURVE",
"439 141 CURVE SMOOTH",
"439 225 LINE SMOOTH",
"439 330 OFFCURVE",
"384 384 OFFCURVE",
"279 384 CURVE SMOOTH",
"174 384 OFFCURVE",
"119 330 OFFCURVE",
"119 225 CURVE SMOOTH",
"119 141 LINE SMOOTH",
"119 36 OFFCURVE",
"174 -18 OFFCURVE",
"279 -18 CURVE SMOOTH"
);
},
{
closed = 1;
nodes = (
"188 2 OFFCURVE",
"141 49 OFFCURVE",
"141 141 CURVE SMOOTH",
"141 225 LINE SMOOTH",
"141 317 OFFCURVE",
"188 365 OFFCURVE",
"279 365 CURVE SMOOTH",
"370 365 OFFCURVE",
"417 317 OFFCURVE",
"417 225 CURVE SMOOTH",
"417 141 LINE SMOOTH",
"417 49 OFFCURVE",
"370 2 OFFCURVE",
"279 2 CURVE SMOOTH"
);
}
);
width = 558;
},
{
layerId = "4F25946F-63AC-42D6-8D55-01CF6A99025B";
paths = (
{
closed = 1;
nodes = (
"315 337 OFFCURVE",
"506 343 OFFCURVE",
"506 498 CURVE",
"506 507 LINE",
"504 641 OFFCURVE",
"423 711 OFFCURVE",
"270 711 CURVE",
"116 711 OFFCURVE",
"36 650 OFFCURVE",
"36 516 CURVE",
"36 507 LINE",
"37 344 OFFCURVE",
"217 337 OFFCURVE",
"270 337 CURVE SMOOTH"
);
},
{
closed = 1;
nodes = (
"244 452 OFFCURVE",
"227 468 OFFCURVE",
"227 493 CURVE SMOOTH",
"227 537 LINE SMOOTH",
"227 562 OFFCURVE",
"244 578 OFFCURVE",
"270 578 CURVE SMOOTH",
"296 578 OFFCURVE",
"314 562 OFFCURVE",
"314 537 CURVE SMOOTH",
"314 493 LINE SMOOTH",
"314 468 OFFCURVE",
"296 452 OFFCURVE",
"270 452 CURVE SMOOTH"
);
},
{
closed = 1;
nodes = (
"445 -5 OFFCURVE",
"526 77 OFFCURVE",
"526 202 CURVE",
"526 231 LINE",
"526 324 OFFCURVE",
"435 455 OFFCURVE",
"271 401 CURVE",
"113 455 OFFCURVE",
"16 316 OFFCURVE",
"16 231 CURVE",
"16 202 LINE",
"17 69 OFFCURVE",
"103 -5 OFFCURVE",
"270 -5 CURVE SMOOTH"
);
},
{
closed = 1;
nodes = (
"244 143 OFFCURVE",
"227 159 OFFCURVE",
"227 184 CURVE SMOOTH",
"227 262 LINE SMOOTH",
"227 287 OFFCURVE",
"244 303 OFFCURVE",
"270 303 CURVE",
"296 303 OFFCURVE",
"314 287 OFFCURVE",
"314 262 CURVE SMOOTH",
"314 184 LINE SMOOTH",
"314 159 OFFCURVE",
"296 143 OFFCURVE",
"270 143 CURVE SMOOTH"
);
}
);
width = 542;
},
{
associatedMasterId = "4F25946F-63AC-42D6-8D55-01CF6A99025B";
layerId = "9541491C-EA7C-4850-9E65-38E203544E44";
name = "Medium {91,100}";
paths = (
{
closed = 1;
nodes = (
"372 344 OFFCURVE",
"442 407 OFFCURVE",
"442 514 CURVE SMOOTH",
"442 532 LINE SMOOTH",
"442 643 OFFCURVE",
"372 709 OFFCURVE",
"254 709 CURVE SMOOTH",
"135 709 OFFCURVE",
"65 645 OFFCURVE",
"65 536 CURVE SMOOTH",
"65 517 LINE SMOOTH",
"66 408 OFFCURVE",
"136 344 OFFCURVE",
"254 344 CURVE SMOOTH"
);
},
{
closed = 1;
nodes = (
"193 409 OFFCURVE",
"152 450 OFFCURVE",
"152 511 CURVE SMOOTH",
"152 540 LINE SMOOTH",
"152 601 OFFCURVE",
"193 642 OFFCURVE",
"254 642 CURVE SMOOTH",
"315 642 OFFCURVE",
"356 601 OFFCURVE",
"356 540 CURVE SMOOTH",
"356 511 LINE SMOOTH",
"356 450 OFFCURVE",
"315 409 OFFCURVE",
"254 409 CURVE SMOOTH"
);
},
{
closed = 1;
nodes = (
"377 -13 OFFCURVE",
"450 53 OFFCURVE",
"450 164 CURVE SMOOTH",
"450 227 LINE SMOOTH",
"450 350 OFFCURVE",
"377 410 OFFCURVE",
"254 390 CURVE SMOOTH",
"131 411 OFFCURVE",
"58 350 OFFCURVE",
"58 227 CURVE SMOOTH",
"58 164 LINE SMOOTH",
"58 53 OFFCURVE",
"131 -13 OFFCURVE",
"254 -13 CURVE SMOOTH"
);
},
{
closed = 1;
nodes = (
"193 61 OFFCURVE",
"152 102 OFFCURVE",
"152 163 CURVE SMOOTH",
"152 242 LINE SMOOTH",
"152 303 OFFCURVE",
"193 344 OFFCURVE",
"254 344 CURVE SMOOTH",
"315 344 OFFCURVE",
"356 303 OFFCURVE",
"356 242 CURVE SMOOTH",
"356 163 LINE SMOOTH",
"356 102 OFFCURVE",
"315 61 OFFCURVE",
"254 61 CURVE SMOOTH"
);
}
);
width = 508;
}
);
unicode = 0038;
},
{
color = 1;
glyphname = colon;
lastChange = "2016-10-18 00:36:02 +0000";
layers = (
{
layerId = "262880E7-CFE1-4BDA-902E-E24798F3240A";
paths = (
{
closed = 1;
nodes = (
"200 37 OFFCURVE",
"219 55 OFFCURVE",
"219 78 CURVE SMOOTH",
"219 100 OFFCURVE",
"200 118 OFFCURVE",
"178 118 CURVE SMOOTH",
"156 118 OFFCURVE",
"137 100 OFFCURVE",
"137 78 CURVE SMOOTH",
"137 55 OFFCURVE",
"155 37 OFFCURVE",
"178 37 CURVE SMOOTH"
);
},
{
closed = 1;
nodes = (
"200 350 OFFCURVE",
"219 368 OFFCURVE",
"219 391 CURVE SMOOTH",
"219 413 OFFCURVE",
"200 431 OFFCURVE",
"178 431 CURVE SMOOTH",
"156 431 OFFCURVE",
"137 413 OFFCURVE",
"137 391 CURVE SMOOTH",
"137 368 OFFCURVE",
"155 350 OFFCURVE",
"178 350 CURVE SMOOTH"
);
}
);
width = 356;
},
{
layerId = "4F25946F-63AC-42D6-8D55-01CF6A99025B";
paths = (
{
closed = 1;
nodes = (
"195 -6 OFFCURVE",
"244 40 OFFCURVE",
"244 99 CURVE",
"244 156 OFFCURVE",
"195 202 OFFCURVE",
"138 202 CURVE SMOOTH",
"81 202 OFFCURVE",
"32 156 OFFCURVE",
"32 99 CURVE SMOOTH",
"32 40 OFFCURVE",
"79 -6 OFFCURVE",
"138 -6 CURVE SMOOTH"
);
},
{
closed = 1;
nodes = (
"195 288 OFFCURVE",
"244 334 OFFCURVE",
"244 393 CURVE",
"244 450 OFFCURVE",
"195 496 OFFCURVE",
"138 496 CURVE SMOOTH",
"81 496 OFFCURVE",
"32 450 OFFCURVE",
"32 393 CURVE SMOOTH",
"32 334 OFFCURVE",
"79 288 OFFCURVE",
"138 288 CURVE SMOOTH"
);
}
);
width = 276;
}
);
unicode = 003A;
},
{
color = 1;
glyphname = comma;
lastChange = "2016-10-18 00:36:00 +0000";
layers = (
{
layerId = "262880E7-CFE1-4BDA-902E-E24798F3240A";
paths = (
{
closed = 1;
nodes = (
"208 153 LINE",
"182 153 LINE",
"132 -66 LINE",
"153 -66 LINE"
);
}
);
width = 339;
},
{
layerId = "4F25946F-63AC-42D6-8D55-01CF6A99025B";
paths = (
{
closed = 1;
nodes = (
"252 143 LINE",
"72 142 LINE",
"53 -86 LINE",
"201 -86 LINE"
);
}
);
width = 290;
}
);
unicode = 002C;
},
{
color = 1;
glyphname = exclam;
lastChange = "2016-10-18 00:36:00 +0000";
layers = (
{
layerId = "262880E7-CFE1-4BDA-902E-E24798F3240A";
paths = (
{
closed = 1;
nodes = (
"181 220 LINE",
"181 700 LINE",
"159 700 LINE",
"159 220 LINE"
);
},
{
closed = 1;
nodes = (
"189 5 OFFCURVE",
"208 23 OFFCURVE",
"208 46 CURVE SMOOTH",
"208 68 OFFCURVE",
"189 86 OFFCURVE",
"167 86 CURVE SMOOTH",
"145 86 OFFCURVE",
"126 68 OFFCURVE",
"126 46 CURVE SMOOTH",
"126 23 OFFCURVE",
"144 5 OFFCURVE",
"167 5 CURVE SMOOTH"
);
}
);
width = 339;
},
{
layerId = "4F25946F-63AC-42D6-8D55-01CF6A99025B";
paths = (
{
closed = 1;
nodes = (
"223 250 LINE",
"253 700 LINE",
"45 700 LINE",
"75 250 LINE"
);
},
{
closed = 1;
nodes = (
"204 -6 OFFCURVE",
"253 40 OFFCURVE",
"253 99 CURVE",
"253 156 OFFCURVE",
"204 202 OFFCURVE",
"147 202 CURVE SMOOTH",
"90 202 OFFCURVE",
"41 156 OFFCURVE",
"41 99 CURVE SMOOTH",
"41 40 OFFCURVE",
"88 -6 OFFCURVE",
"147 -6 CURVE SMOOTH"
);
}
);
width = 297;
}
);
unicode = 0021;
},
{
color = 1;
glyphname = period;
lastChange = "2016-10-18 00:36:00 +0000";
layers = (
{
layerId = "262880E7-CFE1-4BDA-902E-E24798F3240A";
paths = (
{
closed = 1;
nodes = (
"211 5 OFFCURVE",
"230 23 OFFCURVE",
"230 46 CURVE SMOOTH",
"230 68 OFFCURVE",
"211 86 OFFCURVE",
"189 86 CURVE SMOOTH",
"167 86 OFFCURVE",
"148 68 OFFCURVE",
"148 46 CURVE SMOOTH",
"148 23 OFFCURVE",
"166 5 OFFCURVE",
"189 5 CURVE SMOOTH"
);
}
);
width = 377;
},
{
layerId = "4F25946F-63AC-42D6-8D55-01CF6A99025B";
paths = (
{
closed = 1;
nodes = (
"203 -6 OFFCURVE",
"252 40 OFFCURVE",
"252 99 CURVE",
"252 156 OFFCURVE",
"203 202 OFFCURVE",
"146 202 CURVE SMOOTH",
"89 202 OFFCURVE",
"40 156 OFFCURVE",
"40 99 CURVE SMOOTH",
"40 40 OFFCURVE",
"87 -6 OFFCURVE",
"146 -6 CURVE SMOOTH"
);
}
);
width = 291;
}
);
unicode = 002E;
},
{
color = 1;
glyphname = question;
lastChange = "2016-10-18 00:36:01 +0000";
layers = (
{
layerId = "4F25946F-63AC-42D6-8D55-01CF6A99025B";
paths = (
{
closed = 1;
nodes = (
"333 223 LINE",
"333 238 OFFCURVE",
"333 256 OFFCURVE",
"333 262 CURVE SMOOTH",
"333 330 OFFCURVE",
"489 329 OFFCURVE",
"489 494 CURVE SMOOTH",
"489 629 OFFCURVE",
"391 710 OFFCURVE",
"245 710 CURVE SMOOTH",
"90 710 OFFCURVE",
"-13 618 OFFCURVE",
"-13 479 CURVE SMOOTH",
"-13 474 LINE",
"199 464 LINE",
"199 479 LINE SMOOTH",
"199 502 OFFCURVE",
"215 518 OFFCURVE",
"239 518 CURVE SMOOTH",
"260 518 OFFCURVE",
"274 506 OFFCURVE",
"274 487 CURVE SMOOTH",
"274 424 OFFCURVE",
"129 423 OFFCURVE",
"129 290 CURVE SMOOTH",
"129 268 OFFCURVE",
"129 261 OFFCURVE",
"129 224 CURVE"
);
},
{
closed = 1;
nodes = (
"293 -6 OFFCURVE",
"342 40 OFFCURVE",
"342 99 CURVE",
"342 156 OFFCURVE",
"293 202 OFFCURVE",
"236 202 CURVE SMOOTH",
"179 202 OFFCURVE",
"130 156 OFFCURVE",
"130 99 CURVE SMOOTH",
"130 40 OFFCURVE",
"177 -6 OFFCURVE",
"236 -6 CURVE SMOOTH"
);
}
);
width = 487;
},
{
layerId = "262880E7-CFE1-4BDA-902E-E24798F3240A";
paths = (
{
closed = 1;
nodes = (
"304 239 LINE",
"274 243 OFFCURVE",
"259 254 OFFCURVE",
"259 275 CURVE SMOOTH",
"259 346 OFFCURVE",
"440 378 OFFCURVE",
"440 546 CURVE SMOOTH",
"440 645 OFFCURVE",
"377 709 OFFCURVE",
"283 709 CURVE SMOOTH",
"188 709 OFFCURVE",
"124 645 OFFCURVE",
"124 550 CURVE SMOOTH",
"124 500 LINE",
"146 500 LINE",
"146 550 LINE SMOOTH",
"146 633 OFFCURVE",
"201 688 OFFCURVE",
"283 688 CURVE SMOOTH",
"364 688 OFFCURVE",
"418 633 OFFCURVE",
"418 549 CURVE SMOOTH",
"418 395 OFFCURVE",
"235 364 OFFCURVE",
"235 271 CURVE SMOOTH",
"235 235 OFFCURVE",
"263 213 OFFCURVE",
"304 215 CURVE"
);
},
{
closed = 1;
nodes = (
"290 5 OFFCURVE",
"309 23 OFFCURVE",
"309 46 CURVE SMOOTH",
"309 68 OFFCURVE",
"290 86 OFFCURVE",
"268 86 CURVE SMOOTH",
"246 86 OFFCURVE",
"227 68 OFFCURVE",
"227 46 CURVE SMOOTH",
"227 23 OFFCURVE",
"245 5 OFFCURVE",
"268 5 CURVE SMOOTH"
);
}
);
width = 565;
},
{
associatedMasterId = "4F25946F-63AC-42D6-8D55-01CF6A99025B";
layerId = "E56F6CC4-F9B5-46E1-BC01-FC7B34A3882B";
name = "DemiBold {119,100}";
paths = (
{
closed = 1;
nodes = (
"344 261 LINE",
"333 262 OFFCURVE",
"324 261 OFFCURVE",
"324 276 CURVE SMOOTH",
"324 341 OFFCURVE",
"489 355 OFFCURVE",
"489 519 CURVE SMOOTH",
"489 634 OFFCURVE",
"409 710 OFFCURVE",
"286 710 CURVE SMOOTH",
"161 710 OFFCURVE",
"74 630 OFFCURVE",
"74 512 CURVE SMOOTH",
"74 486 LINE",
"198 481 LINE",
"198 512 LINE SMOOTH",
"198 562 OFFCURVE",
"231 597 OFFCURVE",
"283 597 CURVE SMOOTH",
"333 597 OFFCURVE",
"364 565 OFFCURVE",
"364 516 CURVE SMOOTH",
"364 401 OFFCURVE",
"194 408 OFFCURVE",
"194 270 CURVE SMOOTH",
"194 214 OFFCURVE",
"222 166 OFFCURVE",
"332 182 CURVE"
);
},
{
closed = 1;
nodes = (
"313 -1 OFFCURVE",
"348 32 OFFCURVE",
"348 74 CURVE SMOOTH",
"348 115 OFFCURVE",
"313 148 OFFCURVE",
"272 148 CURVE SMOOTH",
"232 148 OFFCURVE",
"197 115 OFFCURVE",
"197 74 CURVE SMOOTH",
"197 32 OFFCURVE",
"230 -1 OFFCURVE",
"272 -1 CURVE SMOOTH"
);
}
);
width = 539;
}
);
unicode = 003F;
},
{
color = 1;
glyphname = quotedbl;
lastChange = "2016-10-18 00:36:01 +0000";
layers = (
{
layerId = "262880E7-CFE1-4BDA-902E-E24798F3240A";
paths = (
{
closed = 1;
nodes = (
"288 501 LINE",
"288 693 LINE",
"266 693 LINE",
"266 501 LINE"
);
},
{
closed = 1;
nodes = (
"178 501 LINE",
"178 693 LINE",
"156 693 LINE",
"156 501 LINE"
);
}
);
width = 444;
},
{
layerId = "4F25946F-63AC-42D6-8D55-01CF6A99025B";
paths = (
{
closed = 1;
nodes = (
"519 481 LINE",
"529 693 LINE",
"327 693 LINE",
"335 481 LINE"
);
},
{
closed = 1;
nodes = (
"249 481 LINE",
"259 693 LINE",
"57 693 LINE",
"67 481 LINE"
);
}
);
width = 586;
}
);
unicode = 0022;
},
{
color = 1;
glyphname = quotesingle;
lastChange = "2016-10-18 00:36:00 +0000";
layers = (
{
layerId = "262880E7-CFE1-4BDA-902E-E24798F3240A";
paths = (
{
closed = 1;
nodes = (
"178 697 LINE",
"156 697 LINE",
"156 507 LINE",
"178 507 LINE"
);
}
);
width = 334;
},
{
layerId = "4F25946F-63AC-42D6-8D55-01CF6A99025B";
paths = (
{
closed = 1;
nodes = (
"241 699 LINE",
"57 699 LINE",
"67 452 LINE",
"231 452 LINE"
);
}
);
width = 298;
}
);
unicode = 0027;
},
{
color = 1;
glyphname = semicolon;
lastChange = "2016-10-18 00:36:01 +0000";
layers = (
{
layerId = "262880E7-CFE1-4BDA-902E-E24798F3240A";
paths = (
{
closed = 1;
nodes = (
"197 370 OFFCURVE",
"216 388 OFFCURVE",
"216 411 CURVE",
"216 433 OFFCURVE",
"197 451 OFFCURVE",
"175 451 CURVE SMOOTH",
"153 451 OFFCURVE",
"134 433 OFFCURVE",
"134 411 CURVE SMOOTH",
"134 388 OFFCURVE",
"152 370 OFFCURVE",
"175 370 CURVE SMOOTH"
);
},
{
closed = 1;
nodes = (
"155 -60 LINE",
"191 147 LINE",
"169 147 LINE",
"134 -60 LINE"
);
}
);
width = 344;
},
{
layerId = "4F25946F-63AC-42D6-8D55-01CF6A99025B";
paths = (
{
closed = 1;
nodes = (
"203 288 OFFCURVE",
"252 334 OFFCURVE",
"252 393 CURVE",
"252 450 OFFCURVE",
"203 496 OFFCURVE",
"146 496 CURVE SMOOTH",
"89 496 OFFCURVE",
"40 450 OFFCURVE",
"40 393 CURVE SMOOTH",
"40 334 OFFCURVE",
"87 288 OFFCURVE",
"146 288 CURVE SMOOTH"
);
},
{
closed = 1;
nodes = (
"187 -46 LINE",
"238 183 LINE",
"68 182 LINE",
"49 -46 LINE"
);
}
);
width = 286;
}
);
unicode = 003B;
},
{
color = 1;
glyphname = slash;
lastChange = "2016-10-18 00:36:01 +0000";
layers = (
{
layerId = "262880E7-CFE1-4BDA-902E-E24798F3240A";
paths = (
{
closed = 1;
nodes = (
"99 0 LINE",
"237 700 LINE",
"215 700 LINE",
"77 0 LINE"
);
}
);
width = 314;
},
{
layerId = "4F25946F-63AC-42D6-8D55-01CF6A99025B";
paths = (
{
closed = 1;
nodes = (
"184 0 LINE",
"322 700 LINE",
"120 700 LINE",
"-18 0 LINE"
);
}
);
width = 304;
}
);
unicode = 002F;
},
{
color = 1;
glyphname = quotesingle.alt;
lastChange = "2016-10-18 00:36:01 +0000";
layers = (
{
layerId = "262880E7-CFE1-4BDA-902E-E24798F3240A";
paths = (
{
closed = 1;
nodes = (
"178 699 LINE",
"156 699 LINE",
"156 507 LINE",
"178 507 LINE"
);
}
);
width = 334;
},
{
layerId = "4F25946F-63AC-42D6-8D55-01CF6A99025B";
paths = (
{
closed = 1;
nodes = (
"251 603 LINE",
"67 603 LINE",
"58 344 LINE",
"189 344 LINE"
);
}
);
width = 284;
}
);
},
{
color = 1;
glyphname = emdash;
lastChange = "2016-10-18 00:36:01 +0000";
layers = (
{
layerId = "262880E7-CFE1-4BDA-902E-E24798F3240A";
paths = (
{
closed = 1;
nodes = (
"519 251 LINE",
"519 272 LINE",
"111 272 LINE",
"111 251 LINE"
);
}
);
width = 630;
},
{
layerId = "4F25946F-63AC-42D6-8D55-01CF6A99025B";
paths = (
{
closed = 1;
nodes = (
"644 180 LINE",
"644 368 LINE",
"44 368 LINE",
"44 180 LINE"
);
}
);
width = 688;
}
);
unicode = 2014;
},
{
color = 1;
glyphname = hyphen;
lastChange = "2016-10-18 00:36:01 +0000";
layers = (
{
layerId = "4F25946F-63AC-42D6-8D55-01CF6A99025B";
paths = (
{
closed = 1;
nodes = (
"324 180 LINE",
"324 368 LINE",
"44 368 LINE",
"44 180 LINE"
);
}
);
width = 368;
},
{
layerId = "262880E7-CFE1-4BDA-902E-E24798F3240A";
paths = (
{
closed = 1;
nodes = (
"369 251 LINE",
"369 272 LINE",
"111 272 LINE",
"111 251 LINE"
);
}
);
width = 480;
}
);
unicode = 002D;
},
{
color = 1;
glyphname = dollar;
lastChange = "2016-10-18 00:36:01 +0000";
layers = (
{
layerId = "4F25946F-63AC-42D6-8D55-01CF6A99025B";
paths = (
{
closed = 1;
nodes = (
"438 -10 OFFCURVE",
"532 74 OFFCURVE",
"532 200 CURVE SMOOTH",
"532 312 OFFCURVE",
"458 381 OFFCURVE",
"345 425 CURVE SMOOTH",
"299 443 OFFCURVE",
"246 456 OFFCURVE",
"246 489 CURVE SMOOTH",
"246 503 OFFCURVE",
"256 518 OFFCURVE",
"280 518 CURVE SMOOTH",
"306 518 OFFCURVE",
"321 501 OFFCURVE",
"321 479 CURVE SMOOTH",
"321 464 LINE",
"533 474 LINE",
"533 479 LINE SMOOTH",
"533 617 OFFCURVE",
"426 710 OFFCURVE",
"274 710 CURVE SMOOTH",
"127 710 OFFCURVE",
"31 624 OFFCURVE",
"31 498 CURVE SMOOTH",
"31 389 OFFCURVE",
"104 318 OFFCURVE",
"218 275 CURVE SMOOTH",
"260 259 OFFCURVE",
"316 245 OFFCURVE",
"316 214 CURVE SMOOTH",
"316 201 OFFCURVE",
"307 182 OFFCURVE",
"281 182 CURVE SMOOTH",
"257 182 OFFCURVE",
"242 199 OFFCURVE",
"242 231 CURVE SMOOTH",
"242 236 LINE",
"19 226 LINE",
"19 221 LINE SMOOTH",
"19 83 OFFCURVE",
"125 -10 OFFCURVE",
"285 -10 CURVE SMOOTH"
);
},
{
closed = 1;
nodes = (
"356 -53 LINE",
"356 93 LINE",
"235 93 LINE",
"235 -53 LINE"
);
},
{
closed = 1;
nodes = (
"353 599 LINE",
"353 745 LINE",
"232 745 LINE",
"232 599 LINE"
);
}
);
width = 557;
},
{
layerId = "262880E7-CFE1-4BDA-902E-E24798F3240A";
paths = (
{
closed = 1;
nodes = (
"409 -9 OFFCURVE",
"473 50 OFFCURVE",
"473 149 CURVE SMOOTH",
"473 255 OFFCURVE",
"400 307 OFFCURVE",
"318 361 CURVE SMOOTH",
"237 414 OFFCURVE",
"173 459 OFFCURVE",
"173 552 CURVE SMOOTH",
"173 636 OFFCURVE",
"225 690 OFFCURVE",
"309 690 CURVE SMOOTH",
"393 690 OFFCURVE",
"445 637 OFFCURVE",
"445 550 CURVE SMOOTH",
"445 500 LINE",
"467 500 LINE",
"467 550 LINE SMOOTH",
"467 650 OFFCURVE",
"407 709 OFFCURVE",
"309 709 CURVE SMOOTH",
"211 709 OFFCURVE",
"151 649 OFFCURVE",
"151 553 CURVE SMOOTH",
"151 446 OFFCURVE",
"226 394 OFFCURVE",
"304 342 CURVE SMOOTH",
"381 291 OFFCURVE",
"451 244 OFFCURVE",
"451 148 CURVE SMOOTH",
"451 63 OFFCURVE",
"395 11 OFFCURVE",
"313 11 CURVE SMOOTH",
"225 11 OFFCURVE",
"179 64 OFFCURVE",
"179 150 CURVE SMOOTH",
"179 200 LINE",
"157 200 LINE",
"157 150 LINE SMOOTH",
"157 50 OFFCURVE",
"212 -9 OFFCURVE",
"314 -9 CURVE SMOOTH"
);
},
{
closed = 1;
nodes = (
"319 -88 LINE",
"319 2 LINE",
"296 2 LINE",
"296 -88 LINE"
);
},
{
closed = 1;
nodes = (
"319 702 LINE",
"319 792 LINE",
"296 792 LINE",
"296 702 LINE"
);
}
);
width = 624;
},
{
associatedMasterId = "4F25946F-63AC-42D6-8D55-01CF6A99025B";
layerId = "E869EA52-1DFA-43F8-82AD-AF9382669512";
name = "DemiBold{119,100}";
paths = (
{
closed = 1;
nodes = (
"387 -10 OFFCURVE",
"467 63 OFFCURVE",
"467 176 CURVE SMOOTH",
"467 286 OFFCURVE",
"394 347 OFFCURVE",
"295 395 CURVE SMOOTH",
"233 430 OFFCURVE",
"175 457 OFFCURVE",
"175 518 CURVE SMOOTH",
"175 565 OFFCURVE",
"204 598 OFFCURVE",
"256 598 CURVE SMOOTH",
"309 598 OFFCURVE",
"341 564 OFFCURVE",
"341 512 CURVE SMOOTH",
"341 481 LINE",
"465 486 LINE",
"465 512 LINE SMOOTH",
"465 632 OFFCURVE",
"380 710 OFFCURVE",
"253 710 CURVE SMOOTH",
"129 710 OFFCURVE",
"49 636 OFFCURVE",
"49 524 CURVE SMOOTH",
"49 415 OFFCURVE",
"123 353 OFFCURVE",
"221 306 CURVE SMOOTH",
"279 274 OFFCURVE",
"341 245 OFFCURVE",
"341 183 CURVE SMOOTH",
"341 137 OFFCURVE",
"311 103 OFFCURVE",
"259 103 CURVE SMOOTH",
"205 103 OFFCURVE",
"176 136 OFFCURVE",
"176 193 CURVE SMOOTH",
"176 219 LINE",
"46 214 LINE",
"46 188 LINE SMOOTH",
"46 68 OFFCURVE",
"128 -10 OFFCURVE",
"261 -10 CURVE SMOOTH"
);
},
{
closed = 1;
nodes = (
"306 -80 LINE",
"306 40 LINE",
"203 40 LINE",
"203 -80 LINE"
);
},
{
closed = 1;
nodes = (
"309 652 LINE",
"309 777 LINE",
"205 777 LINE",
"205 652 LINE"
);
}
);
width = 513;
}
);
unicode = 0024;
},
{
color = 1;
glyphname = at;
lastChange = "2016-10-18 00:36:01 +0000";
layers = (
{
layerId = "262880E7-CFE1-4BDA-902E-E24798F3240A";
paths = (
{
closed = 1;
nodes = (
"699 -68 OFFCURVE",
"861 92 OFFCURVE",
"861 290 CURVE SMOOTH",
"861 488 OFFCURVE",
"699 648 OFFCURVE",
"500 648 CURVE SMOOTH",
"301 648 OFFCURVE",
"139 488 OFFCURVE",
"139 290 CURVE SMOOTH",
"139 92 OFFCURVE",
"301 -68 OFFCURVE",
"500 -68 CURVE SMOOTH"
);
},
{
closed = 1;
nodes = (
"313 -50 OFFCURVE",
"161 102 OFFCURVE",
"161 290 CURVE SMOOTH",
"161 478 OFFCURVE",
"313 630 OFFCURVE",
"500 630 CURVE SMOOTH",
"687 630 OFFCURVE",
"839 478 OFFCURVE",
"839 290 CURVE SMOOTH",
"839 102 OFFCURVE",
"687 -50 OFFCURVE",
"500 -50 CURVE SMOOTH"
);
},
{
closed = 1;
nodes = (
"566 105 OFFCURVE",
"610 152 OFFCURVE",
"610 227 CURVE SMOOTH",
"610 369 LINE SMOOTH",
"610 444 OFFCURVE",
"566 491 OFFCURVE",
"494 491 CURVE SMOOTH",
"421 491 OFFCURVE",
"373 445 OFFCURVE",
"373 370 CURVE SMOOTH",
"373 226 LINE SMOOTH",
"373 151 OFFCURVE",
"421 105 OFFCURVE",
"494 105 CURVE SMOOTH"
);
},
{
closed = 1;
nodes = (
"429 121 OFFCURVE",
"390 161 OFFCURVE",
"390 226 CURVE SMOOTH",
"390 370 LINE SMOOTH",
"390 435 OFFCURVE",
"431 475 OFFCURVE",
"494 475 CURVE SMOOTH",
"558 475 OFFCURVE",
"599 435 OFFCURVE",
"599 370 CURVE SMOOTH",
"599 226 LINE SMOOTH",
"599 161 OFFCURVE",
"560 121 OFFCURVE",
"494 121 CURVE SMOOTH"
);
},
{
closed = 1;
nodes = (
"615 110 LINE",
"615 486 LINE",
"599 486 LINE",
"599 110 LINE"
);
}
);
width = 1000;
},
{
layerId = "4F25946F-63AC-42D6-8D55-01CF6A99025B";
paths = (
{
closed = 1;
nodes = (
"572 -53 OFFCURVE",
"734 108 OFFCURVE",
"734 306 CURVE SMOOTH",
"734 504 OFFCURVE",
"572 665 OFFCURVE",
"374 665 CURVE SMOOTH",
"176 665 OFFCURVE",
"14 504 OFFCURVE",
"14 306 CURVE SMOOTH",
"14 108 OFFCURVE",
"176 -53 OFFCURVE",
"374 -53 CURVE SMOOTH"
);
},
{
closed = 1;
nodes = (
"239 69 OFFCURVE",
"139 170 OFFCURVE",
"139 306 CURVE SMOOTH",
"139 442 OFFCURVE",
"239 543 OFFCURVE",
"374 543 CURVE SMOOTH",
"509 543 OFFCURVE",
"609 442 OFFCURVE",
"609 306 CURVE SMOOTH",
"609 170 OFFCURVE",
"509 69 OFFCURVE",
"374 69 CURVE SMOOTH"
);
},
{
closed = 1;
nodes = (
"395 176 OFFCURVE",
"438 236 OFFCURVE",
"438 283 CURVE SMOOTH",
"438 290 LINE SMOOTH",
"438 295 OFFCURVE",
"430 419 OFFCURVE",
"338 419 CURVE",
"283 419 OFFCURVE",
"250 392 OFFCURVE",
"250 345 CURVE SMOOTH",
"250 255 LINE SMOOTH",
"250 213 OFFCURVE",
"275 176 OFFCURVE",
"331 176 CURVE SMOOTH"
);
},
{
closed = 1;
nodes = (
"356 258 OFFCURVE",
"348 265 OFFCURVE",
"348 277 CURVE SMOOTH",
"348 320 LINE SMOOTH",
"348 332 OFFCURVE",
"356 340 OFFCURVE",
"368 340 CURVE SMOOTH",
"380 340 OFFCURVE",
"389 332 OFFCURVE",
"389 320 CURVE SMOOTH",
"389 277 LINE SMOOTH",
"389 265 OFFCURVE",
"380 258 OFFCURVE",
"368 258 CURVE SMOOTH"
);
},
{
closed = 1;
nodes = (
"487 180 LINE",
"487 416 LINE",
"389 416 LINE",
"389 180 LINE"
);
}
);
width = 748;
}
);
unicode = 0040;
},
{
color = 1;
glyphname = copyright;
lastChange = "2016-10-18 00:36:01 +0000";
layers = (
{
layerId = "262880E7-CFE1-4BDA-902E-E24798F3240A";
paths = (
{
closed = 1;
nodes = (
"699 -68 OFFCURVE",
"861 92 OFFCURVE",
"861 290 CURVE SMOOTH",
"861 488 OFFCURVE",
"699 648 OFFCURVE",
"500 648 CURVE SMOOTH",
"301 648 OFFCURVE",
"139 488 OFFCURVE",
"139 290 CURVE SMOOTH",
"139 92 OFFCURVE",
"301 -68 OFFCURVE",
"500 -68 CURVE SMOOTH"
);
},
{
closed = 1;
nodes = (
"313 -50 OFFCURVE",
"161 102 OFFCURVE",
"161 290 CURVE SMOOTH",
"161 478 OFFCURVE",
"313 630 OFFCURVE",
"500 630 CURVE SMOOTH",
"687 630 OFFCURVE",
"839 478 OFFCURVE",
"839 290 CURVE SMOOTH",
"839 102 OFFCURVE",
"687 -50 OFFCURVE",
"500 -50 CURVE SMOOTH"
);
},
{
closed = 1;
nodes = (
"572 103 OFFCURVE",
"618 148 OFFCURVE",
"618 223 CURVE SMOOTH",
"618 225 LINE",
"602 225 LINE",
"602 223 LINE SMOOTH",
"602 158 OFFCURVE",
"563 118 OFFCURVE",
"497 118 CURVE SMOOTH",
"432 118 OFFCURVE",
"393 158 OFFCURVE",
"393 223 CURVE SMOOTH",
"393 367 LINE SMOOTH",
"393 433 OFFCURVE",
"434 472 OFFCURVE",
"497 472 CURVE SMOOTH",
"561 472 OFFCURVE",
"602 433 OFFCURVE",
"602 367 CURVE SMOOTH",
"602 366 LINE",
"618 366 LINE",
"618 367 LINE SMOOTH",
"618 442 OFFCURVE",
"572 487 OFFCURVE",
"497 487 CURVE SMOOTH",
"423 487 OFFCURVE",
"376 442 OFFCURVE",
"376 367 CURVE SMOOTH",
"376 223 LINE SMOOTH",
"376 148 OFFCURVE",
"423 103 OFFCURVE",
"497 103 CURVE SMOOTH"
);
}
);
width = 1000;
},
{
layerId = "4F25946F-63AC-42D6-8D55-01CF6A99025B";
paths = (
{
closed = 1;
nodes = (
"572 -53 OFFCURVE",
"734 108 OFFCURVE",
"734 306 CURVE SMOOTH",
"734 504 OFFCURVE",
"572 665 OFFCURVE",
"374 665 CURVE SMOOTH",
"176 665 OFFCURVE",
"14 504 OFFCURVE",
"14 306 CURVE SMOOTH",
"14 108 OFFCURVE",
"176 -53 OFFCURVE",
"374 -53 CURVE SMOOTH"
);
},
{
closed = 1;
nodes = (
"239 69 OFFCURVE",
"139 170 OFFCURVE",
"139 306 CURVE SMOOTH",
"139 442 OFFCURVE",
"239 543 OFFCURVE",
"374 543 CURVE SMOOTH",
"509 543 OFFCURVE",
"609 442 OFFCURVE",
"609 306 CURVE SMOOTH",
"609 170 OFFCURVE",
"509 69 OFFCURVE",
"374 69 CURVE SMOOTH"
);
},
{
closed = 1;
nodes = (
"446 170 OFFCURVE",
"494 214 OFFCURVE",
"499 290 CURVE",
"499 291 LINE",
"394 291 LINE",
"394 277 LINE SMOOTH",
"394 265 OFFCURVE",
"385 257 OFFCURVE",
"372 257 CURVE SMOOTH",
"359 257 OFFCURVE",
"350 265 OFFCURVE",
"350 277 CURVE",
"350 323 LINE",
"350 336 OFFCURVE",
"359 344 OFFCURVE",
"372 344 CURVE SMOOTH",
"385 344 OFFCURVE",
"394 336 OFFCURVE",
"394 323 CURVE",
"394 313 LINE",
"499 313 LINE",
"499 314 LINE",
"498 386 OFFCURVE",
"451 428 OFFCURVE",
"371 428 CURVE SMOOTH",
"291 428 OFFCURVE",
"244 382 OFFCURVE",
"244 302 CURVE SMOOTH",
"244 298 LINE SMOOTH",
"244 217 OFFCURVE",
"291 170 OFFCURVE",
"371 170 CURVE SMOOTH"
);
}
);
width = 748;
}
);
unicode = 00A9;
},
{
color = 1;
glyphname = registered;
lastChange = "2016-10-18 00:36:00 +0000";
layers = (
{
layerId = "262880E7-CFE1-4BDA-902E-E24798F3240A";
paths = (
{
closed = 1;
nodes = (
"699 -68 OFFCURVE",
"861 92 OFFCURVE",
"861 290 CURVE SMOOTH",
"861 488 OFFCURVE",
"699 648 OFFCURVE",
"500 648 CURVE SMOOTH",
"301 648 OFFCURVE",
"139 488 OFFCURVE",
"139 290 CURVE SMOOTH",
"139 92 OFFCURVE",
"301 -68 OFFCURVE",
"500 -68 CURVE SMOOTH"
);
},
{
closed = 1;
nodes = (
"313 -50 OFFCURVE",
"161 102 OFFCURVE",
"161 290 CURVE SMOOTH",
"161 478 OFFCURVE",
"313 630 OFFCURVE",
"500 630 CURVE SMOOTH",
"687 630 OFFCURVE",
"839 478 OFFCURVE",
"839 290 CURVE SMOOTH",
"839 102 OFFCURVE",
"687 -50 OFFCURVE",
"500 -50 CURVE SMOOTH"
);
},
{
closed = 1;
nodes = (
"439 104 LINE",
"439 488 LINE",
"511 488 LINE SMOOTH",
"567 488 OFFCURVE",
"602 452 OFFCURVE",
"602 393 CURVE SMOOTH",
"602 334 OFFCURVE",
"567 298 OFFCURVE",
"511 298 CURVE SMOOTH",
"436 298 LINE",
"436 286 LINE",
"511 286 LINE SMOOTH",
"574 287 OFFCURVE",
"614 327 OFFCURVE",
"614 393 CURVE SMOOTH",
"614 459 OFFCURVE",
"574 499 OFFCURVE",
"511 499 CURVE SMOOTH",
"426 499 LINE",
"426 104 LINE"
);
},
{
closed = 1;
nodes = (
"588 104 LINE",
"523 296 LINE",
"512 292 LINE",
"575 104 LINE"
);
}
